# MagicaVoxel @ Ephtracy

# group
o 

# material
mtllib Oni Fire.mtl
usemtl palette

# normals
vn -1 0 0
vn 1 0 0
vn 0 0 1
vn 0 0 -1
vn 0 -1 0
vn 0 1 0

# texcoords
vt 0.0683594 0.5
vt 0.400391 0.5
vt 0.841797 0.5
vt 0.853516 0.5
vt 0.994141 0.5

# verts
v -0.9 0.3 0.3
v -0.9 0.3 0.2
v -0.9 0.3 0.1
v -0.9 1.6 0.6
v -0.9 1.6 0.3
v -0.9 1.8 0.4
v -0.9 1.8 0.3
v -0.9 1.8 0.2
v -0.9 1.8 0.1
v -0.9 2 0.6
v -0.9 2 0.5
v -0.9 2.2 0.5
v -0.9 2.2 0.4
v -0.7 0.2 0.4
v -0.7 0.2 0.3
v -0.7 0.2 0.2
v -0.7 0.3 0.3
v -0.7 0.3 0.2
v -0.7 0.9 0.4
v -0.7 0.9 0.3
v -0.7 1 0.4
v -0.7 1 0.3
v -0.7 1.6 0.4
v -0.7 1.6 0.3
v -0.6 0.7 0.6
v -0.6 0.7 0.4
v -0.6 0.9 0.4
v -0.6 1 0.6
v -0.6 1 0.5
v -0.6 1 0.4
v -0.6 1.1 0.5
v -0.6 1.1 0.4
v -0.4 0.1 0.5
v -0.4 0.1 0.4
v -0.4 0.1 0.3
v -0.4 0.2 0.4
v -0.4 0.2 0.3
v -0.4 0.5 0.6
v -0.4 0.5 0.5
v -0.4 0.5 0.4
v -0.4 0.6 0.4
v -0.4 0.7 0.5
v -0.4 0.7 0.4
v -0.4 0.9 0.6
v -0.4 0.9 0.5
v -0.4 1 0.5
v -0.4 1 0.4
v -0.4 1.1 0.5
v -0.4 1.1 0.4
v -0.4 1.2 0.5
v -0.4 1.2 0.4
v -0.4 1.3 0.5
v -0.4 1.3 0.4
v -0.4 1.4 0.4
v -0.4 1.8 0.5
v -0.4 1.8 0.4
v -0.3 0.4 0.6
v -0.3 0.4 0.5
v -0.3 0.5 0.7
v -0.3 0.5 0.6
v -0.3 0.5 0.5
v -0.3 0.8 0.7
v -0.3 0.8 0.6
v -0.1 0 0.5
v -0.1 0 0.4
v -0.1 0 0.3
v -0.1 0.1 0.5
v -0.1 0.1 0.4
v -0.1 0.1 0.3
v 0.1 0.5 0.6
v 0.1 0.5 0.5
v 0.1 0.8 0.5
v 0.1 0.9 0.6
v 0.1 0.9 0.5
v 0.2 0.4 0.6
v 0.2 0.4 0.5
v 0.2 0.5 0.7
v 0.2 0.5 0.6
v 0.2 0.5 0.5
v 0.2 0.8 0.7
v 0.2 0.8 0.6
v 0.4 0.2 0.3
v 0.4 0.2 0.2
v 0.4 1.8 0.3
v 0.4 1.8 0.2
v 0.5 0.7 0.6
v 0.5 0.7 0.5
v 0.5 1 0.6
v 0.5 1 0.5
v 0.5 1 0.4
v 0.5 1.1 0.5
v 0.5 1.1 0.4
v 0.6 1.6 0.5
v 0.6 1.6 0.4
v 0.6 1.8 0.5
v 0.6 1.8 0.4
v 0.7 0.3 0.2
v 0.7 0.3 0.1
v 0.7 1.6 0.6
v 0.7 1.6 0.5
v 0.7 1.8 0.6
v 0.7 1.8 0.5
v 0.7 1.8 0.4
v 0.7 1.8 0.2
v 0.7 1.8 0.1
v 0.7 2 0.5
v 0.7 2 0.4
v 0.8 1.8 0.6
v 0.8 1.8 0.5
v 0.8 2 0.6
v 0.8 2 0.5
v 0.8 2 0.4
v 0.8 2.2 0.5
v 0.8 2.2 0.4
v -0.8 1.8 0.6
v -0.8 1.8 0.5
v -0.8 2 0.6
v -0.8 2 0.5
v -0.8 2 0.4
v -0.8 2.2 0.5
v -0.8 2.2 0.4
v -0.7 0.3 0.2
v -0.7 0.3 0.1
v -0.7 1.6 0.6
v -0.7 1.6 0.5
v -0.7 1.8 0.6
v -0.7 1.8 0.5
v -0.7 1.8 0.4
v -0.7 1.8 0.2
v -0.7 1.8 0.1
v -0.7 2 0.5
v -0.7 2 0.4
v -0.6 1.6 0.5
v -0.6 1.6 0.4
v -0.6 1.8 0.5
v -0.6 1.8 0.4
v -0.5 0.7 0.6
v -0.5 0.7 0.5
v -0.5 1 0.6
v -0.5 1 0.5
v -0.5 1 0.4
v -0.5 1.1 0.5
v -0.5 1.1 0.4
v -0.4 0.2 0.3
v -0.4 0.2 0.2
v -0.4 1.8 0.3
v -0.4 1.8 0.2
v -0.2 0.4 0.6
v -0.2 0.4 0.5
v -0.2 0.5 0.7
v -0.2 0.5 0.6
v -0.2 0.5 0.5
v -0.2 0.8 0.7
v -0.2 0.8 0.6
v -0.1 0.5 0.6
v -0.1 0.5 0.5
v -0.1 0.8 0.5
v -0.1 0.9 0.6
v -0.1 0.9 0.5
v 0.1 0 0.5
v 0.1 0 0.4
v 0.1 0 0.3
v 0.1 0.1 0.5
v 0.1 0.1 0.4
v 0.1 0.1 0.3
v 0.3 0.4 0.6
v 0.3 0.4 0.5
v 0.3 0.5 0.7
v 0.3 0.5 0.6
v 0.3 0.5 0.5
v 0.3 0.8 0.7
v 0.3 0.8 0.6
v 0.4 0.1 0.5
v 0.4 0.1 0.4
v 0.4 0.1 0.3
v 0.4 0.2 0.4
v 0.4 0.2 0.3
v 0.4 0.5 0.6
v 0.4 0.5 0.5
v 0.4 0.5 0.4
v 0.4 0.6 0.4
v 0.4 0.7 0.5
v 0.4 0.7 0.4
v 0.4 0.9 0.6
v 0.4 0.9 0.5
v 0.4 1 0.5
v 0.4 1 0.4
v 0.4 1.1 0.5
v 0.4 1.1 0.4
v 0.4 1.2 0.5
v 0.4 1.2 0.4
v 0.4 1.3 0.5
v 0.4 1.3 0.4
v 0.4 1.4 0.4
v 0.4 1.8 0.5
v 0.4 1.8 0.4
v 0.6 0.7 0.6
v 0.6 0.7 0.4
v 0.6 0.9 0.4
v 0.6 1 0.6
v 0.6 1 0.5
v 0.6 1 0.4
v 0.6 1.1 0.5
v 0.6 1.1 0.4
v 0.7 0.2 0.4
v 0.7 0.2 0.3
v 0.7 0.2 0.2
v 0.7 0.3 0.3
v 0.7 0.3 0.2
v 0.7 0.9 0.4
v 0.7 0.9 0.3
v 0.7 1 0.4
v 0.7 1 0.3
v 0.7 1.6 0.4
v 0.7 1.6 0.3
v 0.9 0.3 0.3
v 0.9 0.3 0.2
v 0.9 0.3 0.1
v 0.9 1.6 0.6
v 0.9 1.6 0.3
v 0.9 1.8 0.4
v 0.9 1.8 0.3
v 0.9 1.8 0.2
v 0.9 1.8 0.1
v 0.9 2 0.6
v 0.9 2 0.5
v 0.9 2.2 0.5
v 0.9 2.2 0.4
v -0.3 0.5 0.7
v -0.3 0.8 0.7
v -0.2 0.5 0.7
v -0.2 0.8 0.7
v 0.2 0.5 0.7
v 0.2 0.8 0.7
v 0.3 0.5 0.7
v 0.3 0.8 0.7
v -0.9 1.6 0.6
v -0.9 2 0.6
v -0.8 1.8 0.6
v -0.8 2 0.6
v -0.7 1.6 0.6
v -0.7 1.8 0.6
v -0.6 0.7 0.6
v -0.6 1 0.6
v -0.5 0.7 0.6
v -0.5 1 0.6
v -0.4 0.5 0.6
v -0.4 0.9 0.6
v -0.3 0.4 0.6
v -0.3 0.5 0.6
v -0.3 0.8 0.6
v -0.2 0.4 0.6
v -0.2 0.5 0.6
v -0.2 0.8 0.6
v -0.1 0.5 0.6
v -0.1 0.9 0.6
v 0.1 0.5 0.6
v 0.1 0.9 0.6
v 0.2 0.4 0.6
v 0.2 0.5 0.6
v 0.2 0.8 0.6
v 0.3 0.4 0.6
v 0.3 0.5 0.6
v 0.3 0.8 0.6
v 0.4 0.5 0.6
v 0.4 0.9 0.6
v 0.5 0.7 0.6
v 0.5 1 0.6
v 0.6 0.7 0.6
v 0.6 1 0.6
v 0.7 1.6 0.6
v 0.7 1.8 0.6
v 0.8 1.8 0.6
v 0.8 2 0.6
v 0.9 1.6 0.6
v 0.9 2 0.6
v -0.9 2 0.5
v -0.9 2.2 0.5
v -0.8 1.8 0.5
v -0.8 2 0.5
v -0.8 2.2 0.5
v -0.7 1.6 0.5
v -0.7 1.8 0.5
v -0.7 2 0.5
v -0.6 1 0.5
v -0.6 1.1 0.5
v -0.6 1.6 0.5
v -0.6 1.8 0.5
v -0.5 0.7 0.5
v -0.5 1 0.5
v -0.5 1.1 0.5
v -0.4 0.1 0.5
v -0.4 0.5 0.5
v -0.4 0.7 0.5
v -0.4 0.9 0.5
v -0.4 1 0.5
v -0.4 1.1 0.5
v -0.4 1.2 0.5
v -0.4 1.3 0.5
v -0.4 1.8 0.5
v -0.3 0.4 0.5
v -0.3 0.5 0.5
v -0.3 1.1 0.5
v -0.3 1.2 0.5
v -0.3 1.3 0.5
v -0.3 1.5 0.5
v -0.3 1.6 0.5
v -0.2 0.4 0.5
v -0.2 0.5 0.5
v -0.2 1.1 0.5
v -0.2 1.2 0.5
v -0.2 1.3 0.5
v -0.2 1.5 0.5
v -0.2 1.6 0.5
v -0.1 0 0.5
v -0.1 0.1 0.5
v -0.1 0.4 0.5
v -0.1 0.5 0.5
v -0.1 0.8 0.5
v -0.1 0.9 0.5
v -0.1 1.3 0.5
v -0.1 1.5 0.5
v 0.1 0 0.5
v 0.1 0.1 0.5
v 0.1 0.4 0.5
v 0.1 0.5 0.5
v 0.1 0.8 0.5
v 0.1 0.9 0.5
v 0.1 1.3 0.5
v 0.1 1.5 0.5
v 0.2 0.4 0.5
v 0.2 0.5 0.5
v 0.2 1.1 0.5
v 0.2 1.2 0.5
v 0.2 1.3 0.5
v 0.2 1.5 0.5
v 0.2 1.6 0.5
v 0.3 0.4 0.5
v 0.3 0.5 0.5
v 0.3 1.1 0.5
v 0.3 1.2 0.5
v 0.3 1.3 0.5
v 0.3 1.5 0.5
v 0.3 1.6 0.5
v 0.4 0.1 0.5
v 0.4 0.5 0.5
v 0.4 0.7 0.5
v 0.4 0.9 0.5
v 0.4 1 0.5
v 0.4 1.1 0.5
v 0.4 1.2 0.5
v 0.4 1.3 0.5
v 0.4 1.8 0.5
v 0.5 0.7 0.5
v 0.5 1 0.5
v 0.5 1.1 0.5
v 0.6 1 0.5
v 0.6 1.1 0.5
v 0.6 1.6 0.5
v 0.6 1.8 0.5
v 0.7 1.6 0.5
v 0.7 1.8 0.5
v 0.7 2 0.5
v 0.8 1.8 0.5
v 0.8 2 0.5
v 0.8 2.2 0.5
v 0.9 2 0.5
v 0.9 2.2 0.5
v -0.7 0.2 0.4
v -0.7 0.9 0.4
v -0.7 1 0.4
v -0.7 1.6 0.4
v -0.6 0.7 0.4
v -0.6 0.9 0.4
v -0.6 1 0.4
v -0.6 1.1 0.4
v -0.6 1.2 0.4
v -0.6 1.4 0.4
v -0.6 1.6 0.4
v -0.6 1.8 0.4
v -0.5 0.6 0.4
v -0.5 0.7 0.4
v -0.5 1 0.4
v -0.5 1.1 0.4
v -0.5 1.2 0.4
v -0.4 0.2 0.4
v -0.4 0.5 0.4
v -0.4 0.6 0.4
v -0.4 0.7 0.4
v -0.4 1 0.4
v -0.4 1.1 0.4
v -0.4 1.2 0.4
v -0.4 1.3 0.4
v -0.4 1.4 0.4
v -0.4 1.8 0.4
v 0.4 0.2 0.4
v 0.4 0.5 0.4
v 0.4 0.6 0.4
v 0.4 0.7 0.4
v 0.4 1 0.4
v 0.4 1.1 0.4
v 0.4 1.2 0.4
v 0.4 1.3 0.4
v 0.4 1.4 0.4
v 0.4 1.8 0.4
v 0.5 0.6 0.4
v 0.5 0.7 0.4
v 0.5 1 0.4
v 0.5 1.1 0.4
v 0.5 1.2 0.4
v 0.6 0.7 0.4
v 0.6 0.9 0.4
v 0.6 1 0.4
v 0.6 1.1 0.4
v 0.6 1.2 0.4
v 0.6 1.4 0.4
v 0.6 1.6 0.4
v 0.6 1.8 0.4
v 0.7 0.2 0.4
v 0.7 0.9 0.4
v 0.7 1 0.4
v 0.7 1.6 0.4
v -0.9 0.3 0.3
v -0.9 1.6 0.3
v -0.7 0.3 0.3
v -0.7 0.9 0.3
v -0.7 1 0.3
v -0.7 1.6 0.3
v 0.7 0.3 0.3
v 0.7 0.9 0.3
v 0.7 1 0.3
v 0.7 1.6 0.3
v 0.9 0.3 0.3
v 0.9 1.6 0.3
v -0.9 1.8 0.4
v -0.9 2.2 0.4
v -0.8 2 0.4
v -0.8 2.2 0.4
v -0.7 1.8 0.4
v -0.7 2 0.4
v 0.7 1.8 0.4
v 0.7 2 0.4
v 0.8 2 0.4
v 0.8 2.2 0.4
v 0.9 1.8 0.4
v 0.9 2.2 0.4
v -0.4 0.1 0.3
v -0.4 0.2 0.3
v -0.4 1.8 0.3
v -0.1 0 0.3
v -0.1 0.1 0.3
v 0.1 0 0.3
v 0.1 0.1 0.3
v 0.4 0.1 0.3
v 0.4 0.2 0.3
v 0.4 1.8 0.3
v -0.7 0.2 0.2
v -0.7 0.3 0.2
v -0.7 1.8 0.2
v -0.4 0.2 0.2
v -0.4 1.8 0.2
v 0.4 0.2 0.2
v 0.4 1.8 0.2
v 0.7 0.2 0.2
v 0.7 0.3 0.2
v 0.7 1.8 0.2
v -0.9 0.3 0.1
v -0.9 1.8 0.1
v -0.7 0.3 0.1
v -0.7 1.8 0.1
v 0.7 0.3 0.1
v 0.7 1.8 0.1
v 0.9 0.3 0.1
v 0.9 1.8 0.1
v -0.1 0 0.5
v 0.1 0 0.5
v -0.1 0 0.4
v 0.1 0 0.4
v -0.1 0 0.3
v 0.1 0 0.3
v -0.4 0.1 0.5
v -0.1 0.1 0.5
v 0.1 0.1 0.5
v 0.4 0.1 0.5
v -0.4 0.1 0.4
v -0.1 0.1 0.4
v 0.1 0.1 0.4
v 0.4 0.1 0.4
v -0.4 0.1 0.3
v -0.1 0.1 0.3
v 0.1 0.1 0.3
v 0.4 0.1 0.3
v -0.7 0.2 0.4
v -0.4 0.2 0.4
v 0.4 0.2 0.4
v 0.7 0.2 0.4
v -0.7 0.2 0.3
v -0.4 0.2 0.3
v 0.4 0.2 0.3
v 0.7 0.2 0.3
v -0.7 0.2 0.2
v -0.4 0.2 0.2
v 0.4 0.2 0.2
v 0.7 0.2 0.2
v -0.9 0.3 0.3
v -0.7 0.3 0.3
v 0.7 0.3 0.3
v 0.9 0.3 0.3
v -0.9 0.3 0.2
v -0.7 0.3 0.2
v 0.7 0.3 0.2
v 0.9 0.3 0.2
v -0.9 0.3 0.1
v -0.7 0.3 0.1
v 0.7 0.3 0.1
v 0.9 0.3 0.1
v -0.3 0.4 0.6
v -0.2 0.4 0.6
v 0.2 0.4 0.6
v 0.3 0.4 0.6
v -0.3 0.4 0.5
v -0.2 0.4 0.5
v 0.2 0.4 0.5
v 0.3 0.4 0.5
v -0.3 0.5 0.7
v -0.2 0.5 0.7
v 0.2 0.5 0.7
v 0.3 0.5 0.7
v -0.4 0.5 0.6
v -0.3 0.5 0.6
v -0.2 0.5 0.6
v -0.1 0.5 0.6
v 0.1 0.5 0.6
v 0.2 0.5 0.6
v 0.3 0.5 0.6
v 0.4 0.5 0.6
v -0.4 0.5 0.5
v -0.3 0.5 0.5
v -0.2 0.5 0.5
v -0.1 0.5 0.5
v 0.1 0.5 0.5
v 0.2 0.5 0.5
v 0.3 0.5 0.5
v 0.4 0.5 0.5
v -0.6 0.7 0.6
v -0.5 0.7 0.6
v 0.5 0.7 0.6
v 0.6 0.7 0.6
v -0.5 0.7 0.5
v -0.4 0.7 0.5
v 0.4 0.7 0.5
v 0.5 0.7 0.5
v -0.6 0.7 0.4
v -0.5 0.7 0.4
v -0.4 0.7 0.4
v 0.4 0.7 0.4
v 0.5 0.7 0.4
v 0.6 0.7 0.4
v -0.9 1.6 0.6
v -0.7 1.6 0.6
v 0.7 1.6 0.6
v 0.9 1.6 0.6
v -0.7 1.6 0.5
v -0.6 1.6 0.5
v 0.6 1.6 0.5
v 0.7 1.6 0.5
v -0.7 1.6 0.4
v -0.6 1.6 0.4
v 0.6 1.6 0.4
v 0.7 1.6 0.4
v -0.9 1.6 0.3
v -0.7 1.6 0.3
v 0.7 1.6 0.3
v 0.9 1.6 0.3
v -0.3 0.8 0.7
v -0.2 0.8 0.7
v 0.2 0.8 0.7
v 0.3 0.8 0.7
v -0.3 0.8 0.6
v -0.2 0.8 0.6
v 0.2 0.8 0.6
v 0.3 0.8 0.6
v -0.4 0.9 0.6
v -0.1 0.9 0.6
v 0.1 0.9 0.6
v 0.4 0.9 0.6
v -0.4 0.9 0.5
v -0.1 0.9 0.5
v 0.1 0.9 0.5
v 0.4 0.9 0.5
v -0.6 1 0.6
v -0.5 1 0.6
v 0.5 1 0.6
v 0.6 1 0.6
v -0.6 1 0.5
v -0.5 1 0.5
v -0.4 1 0.5
v 0.4 1 0.5
v 0.5 1 0.5
v 0.6 1 0.5
v -0.5 1 0.4
v -0.4 1 0.4
v 0.4 1 0.4
v 0.5 1 0.4
v -0.6 1.1 0.5
v -0.5 1.1 0.5
v 0.5 1.1 0.5
v 0.6 1.1 0.5
v -0.6 1.1 0.4
v -0.5 1.1 0.4
v 0.5 1.1 0.4
v 0.6 1.1 0.4
v -0.8 1.8 0.6
v -0.7 1.8 0.6
v 0.7 1.8 0.6
v 0.8 1.8 0.6
v -0.8 1.8 0.5
v -0.7 1.8 0.5
v -0.6 1.8 0.5
v -0.4 1.8 0.5
v 0.4 1.8 0.5
v 0.6 1.8 0.5
v 0.7 1.8 0.5
v 0.8 1.8 0.5
v -0.9 1.8 0.4
v -0.7 1.8 0.4
v -0.6 1.8 0.4
v -0.4 1.8 0.4
v 0.4 1.8 0.4
v 0.6 1.8 0.4
v 0.7 1.8 0.4
v 0.9 1.8 0.4
v -0.9 1.8 0.3
v -0.7 1.8 0.3
v -0.4 1.8 0.3
v 0.4 1.8 0.3
v 0.7 1.8 0.3
v 0.9 1.8 0.3
v -0.9 1.8 0.2
v -0.7 1.8 0.2
v -0.4 1.8 0.2
v 0.4 1.8 0.2
v 0.7 1.8 0.2
v 0.9 1.8 0.2
v -0.9 1.8 0.1
v -0.7 1.8 0.1
v 0.7 1.8 0.1
v 0.9 1.8 0.1
v -0.9 2 0.6
v -0.8 2 0.6
v 0.8 2 0.6
v 0.9 2 0.6
v -0.9 2 0.5
v -0.8 2 0.5
v -0.7 2 0.5
v 0.7 2 0.5
v 0.8 2 0.5
v 0.9 2 0.5
v -0.8 2 0.4
v -0.7 2 0.4
v 0.7 2 0.4
v 0.8 2 0.4
v -0.9 2.2 0.5
v -0.8 2.2 0.5
v 0.8 2.2 0.5
v 0.9 2.2 0.5
v -0.9 2.2 0.4
v -0.8 2.2 0.4
v 0.8 2.2 0.4
v 0.9 2.2 0.4

# faces
f 5/4/1 2/4/1 1/4/1
f 6/1/1 5/1/1 4/1/1
f 7/4/1 2/4/1 5/4/1
f 7/1/1 5/1/1 6/1/1
f 8/2/1 3/2/1 2/2/1
f 8/4/1 2/4/1 7/4/1
f 9/2/1 3/2/1 8/2/1
f 10/1/1 6/1/1 4/1/1
f 11/1/1 6/1/1 10/1/1
f 12/1/1 6/1/1 11/1/1
f 13/1/1 6/1/1 12/1/1
f 17/4/1 15/4/1 14/4/1
f 17/2/1 16/2/1 15/2/1
f 18/2/1 16/2/1 17/2/1
f 19/4/1 17/4/1 14/4/1
f 20/4/1 17/4/1 19/4/1
f 21/5/1 20/5/1 19/5/1
f 22/5/1 20/5/1 21/5/1
f 23/4/1 22/4/1 21/4/1
f 24/4/1 22/4/1 23/4/1
f 27/1/1 26/1/1 25/1/1
f 28/1/1 27/1/1 25/1/1
f 29/1/1 27/1/1 28/1/1
f 30/1/1 27/1/1 29/1/1
f 31/1/1 30/1/1 29/1/1
f 32/1/1 30/1/1 31/1/1
f 36/4/1 34/4/1 33/4/1
f 36/2/1 35/2/1 34/2/1
f 37/2/1 35/2/1 36/2/1
f 39/4/1 36/4/1 33/4/1
f 40/4/1 36/4/1 39/4/1
f 41/5/1 40/5/1 39/5/1
f 42/1/1 39/1/1 38/1/1
f 42/5/1 41/5/1 39/5/1
f 43/5/1 41/5/1 42/5/1
f 44/1/1 42/1/1 38/1/1
f 45/1/1 42/1/1 44/1/1
f 48/4/1 47/4/1 46/4/1
f 49/4/1 47/4/1 48/4/1
f 50/3/1 49/3/1 48/3/1
f 51/3/1 49/3/1 50/3/1
f 52/5/1 51/5/1 50/5/1
f 53/5/1 51/5/1 52/5/1
f 54/4/1 53/4/1 52/4/1
f 55/4/1 54/4/1 52/4/1
f 56/4/1 54/4/1 55/4/1
f 60/1/1 58/1/1 57/1/1
f 61/1/1 58/1/1 60/1/1
f 62/1/1 60/1/1 59/1/1
f 63/1/1 60/1/1 62/1/1
f 67/4/1 65/4/1 64/4/1
f 68/2/1 66/2/1 65/2/1
f 68/4/1 65/4/1 67/4/1
f 69/2/1 66/2/1 68/2/1
f 72/1/1 71/1/1 70/1/1
f 73/1/1 72/1/1 70/1/1
f 74/1/1 72/1/1 73/1/1
f 78/1/1 76/1/1 75/1/1
f 79/1/1 76/1/1 78/1/1
f 80/1/1 78/1/1 77/1/1
f 81/1/1 78/1/1 80/1/1
f 84/2/1 83/2/1 82/2/1
f 85/2/1 83/2/1 84/2/1
f 88/1/1 87/1/1 86/1/1
f 89/1/1 87/1/1 88/1/1
f 91/1/1 90/1/1 89/1/1
f 92/1/1 90/1/1 91/1/1
f 95/1/1 94/1/1 93/1/1
f 96/1/1 94/1/1 95/1/1
f 101/1/1 100/1/1 99/1/1
f 102/1/1 100/1/1 101/1/1
f 104/2/1 98/2/1 97/2/1
f 105/2/1 98/2/1 104/2/1
f 106/1/1 103/1/1 102/1/1
f 107/1/1 103/1/1 106/1/1
f 110/1/1 109/1/1 108/1/1
f 111/1/1 109/1/1 110/1/1
f 113/1/1 112/1/1 111/1/1
f 114/1/1 112/1/1 113/1/1
f 115/1/2 116/1/2 117/1/2
f 117/1/2 116/1/2 118/1/2
f 118/1/2 119/1/2 120/1/2
f 120/1/2 119/1/2 121/1/2
f 124/1/2 125/1/2 126/1/2
f 126/1/2 125/1/2 127/1/2
f 122/2/2 123/2/2 129/2/2
f 129/2/2 123/2/2 130/2/2
f 127/1/2 128/1/2 131/1/2
f 131/1/2 128/1/2 132/1/2
f 133/1/2 134/1/2 135/1/2
f 135/1/2 134/1/2 136/1/2
f 137/1/2 138/1/2 139/1/2
f 139/1/2 138/1/2 140/1/2
f 140/1/2 141/1/2 142/1/2
f 142/1/2 141/1/2 143/1/2
f 144/2/2 145/2/2 146/2/2
f 146/2/2 145/2/2 147/2/2
f 148/1/2 149/1/2 151/1/2
f 151/1/2 149/1/2 152/1/2
f 150/1/2 151/1/2 153/1/2
f 153/1/2 151/1/2 154/1/2
f 155/1/2 156/1/2 157/1/2
f 155/1/2 157/1/2 158/1/2
f 158/1/2 157/1/2 159/1/2
f 160/4/2 161/4/2 163/4/2
f 161/2/2 162/2/2 164/2/2
f 163/4/2 161/4/2 164/4/2
f 164/2/2 162/2/2 165/2/2
f 166/1/2 167/1/2 169/1/2
f 169/1/2 167/1/2 170/1/2
f 168/1/2 169/1/2 171/1/2
f 171/1/2 169/1/2 172/1/2
f 173/4/2 174/4/2 176/4/2
f 174/2/2 175/2/2 176/2/2
f 176/2/2 175/2/2 177/2/2
f 173/4/2 176/4/2 179/4/2
f 179/4/2 176/4/2 180/4/2
f 179/5/2 180/5/2 181/5/2
f 178/1/2 179/1/2 182/1/2
f 179/5/2 181/5/2 182/5/2
f 182/5/2 181/5/2 183/5/2
f 178/1/2 182/1/2 184/1/2
f 184/1/2 182/1/2 185/1/2
f 186/4/2 187/4/2 188/4/2
f 188/4/2 187/4/2 189/4/2
f 188/3/2 189/3/2 190/3/2
f 190/3/2 189/3/2 191/3/2
f 190/5/2 191/5/2 192/5/2
f 192/5/2 191/5/2 193/5/2
f 192/4/2 193/4/2 194/4/2
f 192/4/2 194/4/2 195/4/2
f 195/4/2 194/4/2 196/4/2
f 197/1/2 198/1/2 199/1/2
f 197/1/2 199/1/2 200/1/2
f 200/1/2 199/1/2 201/1/2
f 201/1/2 199/1/2 202/1/2
f 201/1/2 202/1/2 203/1/2
f 203/1/2 202/1/2 204/1/2
f 205/4/2 206/4/2 208/4/2
f 206/2/2 207/2/2 208/2/2
f 208/2/2 207/2/2 209/2/2
f 205/4/2 208/4/2 210/4/2
f 210/4/2 208/4/2 211/4/2
f 210/5/2 211/5/2 212/5/2
f 212/5/2 211/5/2 213/5/2
f 212/4/2 213/4/2 214/4/2
f 214/4/2 213/4/2 215/4/2
f 216/4/2 217/4/2 220/4/2
f 219/1/2 220/1/2 221/1/2
f 220/4/2 217/4/2 222/4/2
f 221/1/2 220/1/2 222/1/2
f 217/2/2 218/2/2 223/2/2
f 222/4/2 217/4/2 223/4/2
f 223/2/2 218/2/2 224/2/2
f 219/1/2 221/1/2 225/1/2
f 225/1/2 221/1/2 226/1/2
f 226/1/2 221/1/2 227/1/2
f 227/1/2 221/1/2 228/1/2
f 231/1/3 230/1/3 229/1/3
f 232/1/3 230/1/3 231/1/3
f 235/1/3 234/1/3 233/1/3
f 236/1/3 234/1/3 235/1/3
f 239/1/3 238/1/3 237/1/3
f 240/1/3 238/1/3 239/1/3
f 241/1/3 239/1/3 237/1/3
f 242/1/3 239/1/3 241/1/3
f 245/1/3 244/1/3 243/1/3
f 246/1/3 244/1/3 245/1/3
f 250/1/3 248/1/3 247/1/3
f 251/1/3 248/1/3 250/1/3
f 252/1/3 250/1/3 249/1/3
f 253/1/3 250/1/3 252/1/3
f 254/1/3 248/1/3 251/1/3
f 255/1/3 254/1/3 253/1/3
f 256/1/3 248/1/3 254/1/3
f 256/1/3 254/1/3 255/1/3
f 260/1/3 258/1/3 257/1/3
f 261/1/3 258/1/3 260/1/3
f 262/1/3 260/1/3 259/1/3
f 263/1/3 260/1/3 262/1/3
f 264/1/3 258/1/3 261/1/3
f 265/1/3 264/1/3 263/1/3
f 266/1/3 258/1/3 264/1/3
f 266/1/3 264/1/3 265/1/3
f 269/1/3 268/1/3 267/1/3
f 270/1/3 268/1/3 269/1/3
f 273/1/3 272/1/3 271/1/3
f 275/1/3 273/1/3 271/1/3
f 275/1/3 274/1/3 273/1/3
f 276/1/3 274/1/3 275/1/3
f 280/1/3 278/1/3 277/1/3
f 281/1/3 278/1/3 280/1/3
f 283/1/3 280/1/3 279/1/3
f 284/1/3 280/1/3 283/1/3
f 287/1/3 283/1/3 282/1/3
f 288/1/3 283/1/3 287/1/3
f 290/1/3 286/1/3 285/1/3
f 291/1/3 286/1/3 290/1/3
f 294/1/3 290/1/3 289/1/3
f 295/1/3 290/1/3 294/1/3
f 296/1/3 290/1/3 295/1/3
f 301/4/3 293/4/3 292/4/3
f 302/4/3 293/4/3 301/4/3
f 303/4/3 297/4/3 296/4/3
f 303/4/3 296/4/3 295/4/3
f 303/3/3 298/3/3 297/3/3
f 304/5/3 299/5/3 298/5/3
f 304/3/3 298/3/3 303/3/3
f 305/4/3 300/4/3 299/4/3
f 305/5/3 299/5/3 304/5/3
f 306/4/3 300/4/3 305/4/3
f 307/4/3 300/4/3 306/4/3
f 308/4/3 301/4/3 292/4/3
f 310/5/3 304/5/3 303/5/3
f 310/4/3 303/4/3 295/4/3
f 311/4/3 305/4/3 304/4/3
f 311/5/3 304/5/3 310/5/3
f 311/4/3 306/4/3 305/4/3
f 312/4/3 306/4/3 311/4/3
f 313/5/3 307/5/3 306/5/3
f 313/4/3 306/4/3 312/4/3
f 314/4/3 300/4/3 307/4/3
f 314/5/3 307/5/3 313/5/3
f 316/4/3 309/4/3 308/4/3
f 316/4/3 308/4/3 292/4/3
f 317/4/3 309/4/3 316/4/3
f 318/4/3 309/4/3 317/4/3
f 320/4/3 312/4/3 311/4/3
f 320/4/3 310/4/3 295/4/3
f 320/4/3 311/4/3 310/4/3
f 321/5/3 313/5/3 312/5/3
f 321/4/3 312/4/3 320/4/3
f 322/4/3 314/4/3 313/4/3
f 322/5/3 313/5/3 321/5/3
f 323/4/3 317/4/3 316/4/3
f 323/4/3 316/4/3 315/4/3
f 324/4/3 317/4/3 323/4/3
f 325/5/3 319/5/3 318/5/3
f 325/4/3 317/4/3 324/4/3
f 325/5/3 318/5/3 317/5/3
f 326/5/3 319/5/3 325/5/3
f 327/4/3 320/4/3 319/4/3
f 327/5/3 319/5/3 326/5/3
f 327/4/3 321/4/3 320/4/3
f 327/4/3 322/4/3 321/4/3
f 328/4/3 322/4/3 327/4/3
f 329/4/3 322/4/3 328/4/3
f 330/4/3 314/4/3 322/4/3
f 330/4/3 322/4/3 329/4/3
f 331/4/3 326/4/3 325/4/3
f 331/4/3 325/4/3 324/4/3
f 332/4/3 326/4/3 331/4/3
f 333/4/3 329/4/3 328/4/3
f 334/4/3 329/4/3 333/4/3
f 335/5/3 330/5/3 329/5/3
f 335/4/3 329/4/3 334/4/3
f 336/4/3 314/4/3 330/4/3
f 336/5/3 330/5/3 335/5/3
f 337/4/3 300/4/3 314/4/3
f 337/4/3 314/4/3 336/4/3
f 338/4/3 331/4/3 324/4/3
f 340/5/3 334/5/3 333/5/3
f 340/4/3 333/4/3 328/4/3
f 341/4/3 336/4/3 335/4/3
f 341/5/3 334/5/3 340/5/3
f 341/4/3 335/4/3 334/4/3
f 342/4/3 336/4/3 341/4/3
f 343/5/3 337/5/3 336/5/3
f 343/4/3 336/4/3 342/4/3
f 344/4/3 300/4/3 337/4/3
f 344/5/3 337/5/3 343/5/3
f 345/4/3 338/4/3 324/4/3
f 345/4/3 339/4/3 338/4/3
f 346/4/3 339/4/3 345/4/3
f 348/4/3 340/4/3 328/4/3
f 349/4/3 340/4/3 348/4/3
f 350/3/3 341/3/3 340/3/3
f 350/4/3 340/4/3 349/4/3
f 351/5/3 342/5/3 341/5/3
f 351/3/3 341/3/3 350/3/3
f 352/4/3 344/4/3 343/4/3
f 352/5/3 342/5/3 351/5/3
f 352/4/3 343/4/3 342/4/3
f 353/4/3 300/4/3 344/4/3
f 353/4/3 344/4/3 352/4/3
f 354/1/3 348/1/3 347/1/3
f 354/1/3 349/1/3 348/1/3
f 355/1/3 349/1/3 354/1/3
f 357/1/3 356/1/3 355/1/3
f 358/1/3 356/1/3 357/1/3
f 361/1/3 360/1/3 359/1/3
f 362/1/3 360/1/3 361/1/3
f 364/1/3 363/1/3 362/1/3
f 365/1/3 363/1/3 364/1/3
f 367/1/3 366/1/3 365/1/3
f 368/1/3 366/1/3 367/1/3
f 373/4/3 370/4/3 369/4/3
f 374/5/3 371/5/3 370/5/3
f 374/4/3 370/4/3 373/4/3
f 375/4/3 372/4/3 371/4/3
f 375/5/3 371/5/3 374/5/3
f 376/4/3 372/4/3 375/4/3
f 377/4/3 372/4/3 376/4/3
f 378/4/3 372/4/3 377/4/3
f 379/4/3 372/4/3 378/4/3
f 381/4/3 373/4/3 369/4/3
f 382/4/3 373/4/3 381/4/3
f 384/4/3 377/4/3 376/4/3
f 385/5/3 378/5/3 377/5/3
f 385/4/3 377/4/3 384/4/3
f 386/4/3 381/4/3 369/4/3
f 387/4/3 381/4/3 386/4/3
f 388/5/3 382/5/3 381/5/3
f 388/4/3 381/4/3 387/4/3
f 389/5/3 382/5/3 388/5/3
f 390/4/3 384/4/3 383/4/3
f 391/5/3 385/5/3 384/5/3
f 391/4/3 384/4/3 390/4/3
f 392/5/3 378/5/3 385/5/3
f 392/5/3 385/5/3 391/5/3
f 393/5/3 378/5/3 392/5/3
f 394/4/3 380/4/3 379/4/3
f 394/5/3 378/5/3 393/5/3
f 394/4/3 379/4/3 378/4/3
f 395/4/3 380/4/3 394/4/3
f 406/4/3 397/4/3 396/4/3
f 406/4/3 398/4/3 397/4/3
f 406/5/3 399/5/3 398/5/3
f 407/5/3 399/5/3 406/5/3
f 408/4/3 401/4/3 400/4/3
f 409/5/3 404/5/3 403/5/3
f 409/4/3 401/4/3 408/4/3
f 409/5/3 403/5/3 402/5/3
f 409/5/3 402/5/3 401/5/3
f 410/5/3 404/5/3 409/5/3
f 411/4/3 407/4/3 406/4/3
f 414/4/3 410/4/3 409/4/3
f 415/5/3 404/5/3 410/5/3
f 415/4/3 410/4/3 414/4/3
f 416/4/3 405/4/3 404/4/3
f 416/5/3 404/5/3 415/5/3
f 417/4/3 405/4/3 416/4/3
f 418/4/3 405/4/3 417/4/3
f 419/4/3 406/4/3 396/4/3
f 419/4/3 411/4/3 406/4/3
f 419/4/3 412/4/3 411/4/3
f 420/5/3 413/5/3 412/5/3
f 420/4/3 412/4/3 419/4/3
f 421/4/3 415/4/3 414/4/3
f 421/5/3 413/5/3 420/5/3
f 421/4/3 414/4/3 413/4/3
f 421/4/3 417/4/3 416/4/3
f 421/4/3 416/4/3 415/4/3
f 422/4/3 417/4/3 421/4/3
f 425/4/3 424/4/3 423/4/3
f 426/4/3 424/4/3 425/4/3
f 427/4/3 424/4/3 426/4/3
f 428/4/3 424/4/3 427/4/3
f 433/4/3 430/4/3 429/4/3
f 433/4/3 432/4/3 431/4/3
f 433/4/3 431/4/3 430/4/3
f 434/4/3 432/4/3 433/4/3
f 435/1/4 436/1/4 437/1/4
f 437/1/4 436/1/4 438/1/4
f 435/1/4 437/1/4 439/1/4
f 439/1/4 437/1/4 440/1/4
f 441/1/4 442/1/4 443/1/4
f 441/1/4 443/1/4 445/1/4
f 443/1/4 444/1/4 445/1/4
f 445/1/4 444/1/4 446/1/4
f 447/2/4 448/2/4 451/2/4
f 448/2/4 449/2/4 451/2/4
f 450/2/4 451/2/4 452/2/4
f 451/2/4 449/2/4 453/2/4
f 452/2/4 451/2/4 453/2/4
f 453/2/4 449/2/4 454/2/4
f 454/2/4 449/2/4 455/2/4
f 455/2/4 449/2/4 456/2/4
f 457/2/4 458/2/4 460/2/4
f 458/2/4 459/2/4 460/2/4
f 460/2/4 459/2/4 461/2/4
f 462/2/4 463/2/4 464/2/4
f 464/2/4 463/2/4 465/2/4
f 465/2/4 463/2/4 466/2/4
f 467/2/4 468/2/4 469/2/4
f 469/2/4 468/2/4 470/2/4
f 471/2/4 472/2/4 473/2/4
f 473/2/4 472/2/4 474/2/4
f 477/4/5 476/4/5 475/4/5
f 478/4/5 476/4/5 477/4/5
f 479/2/5 478/2/5 477/2/5
f 480/2/5 478/2/5 479/2/5
f 485/4/5 482/4/5 481/4/5
f 486/4/5 482/4/5 485/4/5
f 487/4/5 484/4/5 483/4/5
f 488/4/5 484/4/5 487/4/5
f 489/2/5 486/2/5 485/2/5
f 490/2/5 486/2/5 489/2/5
f 491/2/5 488/2/5 487/2/5
f 492/2/5 488/2/5 491/2/5
f 497/4/5 494/4/5 493/4/5
f 498/4/5 494/4/5 497/4/5
f 499/4/5 496/4/5 495/4/5
f 500/4/5 496/4/5 499/4/5
f 501/2/5 498/2/5 497/2/5
f 502/2/5 498/2/5 501/2/5
f 503/2/5 500/2/5 499/2/5
f 504/2/5 500/2/5 503/2/5
f 509/4/5 506/4/5 505/4/5
f 510/4/5 506/4/5 509/4/5
f 511/4/5 508/4/5 507/4/5
f 512/4/5 508/4/5 511/4/5
f 513/2/5 510/2/5 509/2/5
f 514/2/5 510/2/5 513/2/5
f 515/2/5 512/2/5 511/2/5
f 516/2/5 512/2/5 515/2/5
f 521/1/5 518/1/5 517/1/5
f 522/1/5 518/1/5 521/1/5
f 523/1/5 520/1/5 519/1/5
f 524/1/5 520/1/5 523/1/5
f 530/1/5 526/1/5 525/1/5
f 531/1/5 526/1/5 530/1/5
f 534/1/5 528/1/5 527/1/5
f 535/1/5 528/1/5 534/1/5
f 537/1/5 530/1/5 529/1/5
f 538/1/5 530/1/5 537/1/5
f 539/1/5 532/1/5 531/1/5
f 540/1/5 532/1/5 539/1/5
f 541/1/5 534/1/5 533/1/5
f 542/1/5 534/1/5 541/1/5
f 543/1/5 536/1/5 535/1/5
f 544/1/5 536/1/5 543/1/5
f 549/1/5 546/1/5 545/1/5
f 552/1/5 548/1/5 547/1/5
f 553/1/5 550/1/5 549/1/5
f 553/1/5 549/1/5 545/1/5
f 554/1/5 550/1/5 553/1/5
f 555/1/5 550/1/5 554/1/5
f 556/1/5 552/1/5 551/1/5
f 557/1/5 548/1/5 552/1/5
f 557/1/5 552/1/5 556/1/5
f 558/1/5 548/1/5 557/1/5
f 563/1/5 560/1/5 559/1/5
f 566/1/5 562/1/5 561/1/5
f 567/1/5 564/1/5 563/1/5
f 567/1/5 563/1/5 559/1/5
f 568/1/5 564/1/5 567/1/5
f 569/1/5 566/1/5 565/1/5
f 570/1/5 562/1/5 566/1/5
f 570/1/5 566/1/5 569/1/5
f 571/1/5 567/1/5 559/1/5
f 572/1/5 567/1/5 571/1/5
f 573/1/5 562/1/5 570/1/5
f 574/1/5 562/1/5 573/1/5
f 575/1/6 576/1/6 579/1/6
f 579/1/6 576/1/6 580/1/6
f 577/1/6 578/1/6 581/1/6
f 581/1/6 578/1/6 582/1/6
f 583/1/6 584/1/6 587/1/6
f 587/1/6 584/1/6 588/1/6
f 585/1/6 586/1/6 589/1/6
f 589/1/6 586/1/6 590/1/6
f 591/1/6 592/1/6 595/1/6
f 595/1/6 592/1/6 596/1/6
f 593/1/6 594/1/6 599/1/6
f 599/1/6 594/1/6 600/1/6
f 596/1/6 597/1/6 601/1/6
f 601/1/6 597/1/6 602/1/6
f 598/1/6 599/1/6 603/1/6
f 603/1/6 599/1/6 604/1/6
f 605/1/6 606/1/6 609/1/6
f 609/1/6 606/1/6 610/1/6
f 607/1/6 608/1/6 611/1/6
f 611/1/6 608/1/6 612/1/6
f 613/1/6 614/1/6 617/1/6
f 617/1/6 614/1/6 618/1/6
f 615/1/6 616/1/6 623/1/6
f 623/1/6 616/1/6 624/1/6
f 618/1/6 619/1/6 626/1/6
f 626/1/6 619/1/6 627/1/6
f 620/4/6 621/4/6 628/4/6
f 628/4/6 621/4/6 629/4/6
f 622/1/6 623/1/6 630/1/6
f 630/1/6 623/1/6 631/1/6
f 625/1/6 626/1/6 633/1/6
f 626/4/6 627/4/6 634/4/6
f 633/1/6 626/1/6 634/1/6
f 627/4/6 628/4/6 634/4/6
f 628/2/6 629/2/6 635/2/6
f 634/4/6 628/4/6 635/4/6
f 630/4/6 631/4/6 636/4/6
f 635/2/6 629/2/6 636/2/6
f 629/4/6 630/4/6 636/4/6
f 631/1/6 632/1/6 637/1/6
f 636/4/6 631/4/6 637/4/6
f 637/1/6 632/1/6 638/1/6
f 633/4/6 634/4/6 639/4/6
f 634/2/6 635/2/6 640/2/6
f 639/4/6 634/4/6 640/4/6
f 640/2/6 635/2/6 641/2/6
f 636/2/6 637/2/6 642/2/6
f 637/4/6 638/4/6 643/4/6
f 642/2/6 637/2/6 643/2/6
f 643/4/6 638/4/6 644/4/6
f 639/2/6 640/2/6 645/2/6
f 645/2/6 640/2/6 646/2/6
f 643/2/6 644/2/6 647/2/6
f 647/2/6 644/2/6 648/2/6
f 649/1/6 650/1/6 653/1/6
f 653/1/6 650/1/6 654/1/6
f 651/1/6 652/1/6 657/1/6
f 657/1/6 652/1/6 658/1/6
f 654/1/6 655/1/6 659/1/6
f 659/1/6 655/1/6 660/1/6
f 656/1/6 657/1/6 661/1/6
f 661/1/6 657/1/6 662/1/6
f 663/1/6 664/1/6 667/1/6
f 667/1/6 664/1/6 668/1/6
f 665/1/6 666/1/6 669/1/6
f 669/1/6 666/1/6 670/1/6
