# MagicaVoxel @ Ephtracy

# group
o 

# material
mtllib Oni Earth.mtl
usemtl palette

# normals
vn -1 0 0
vn 1 0 0
vn 0 0 1
vn 0 0 -1
vn 0 -1 0
vn 0 1 0

# texcoords
vt 0.0449219 0.5
vt 0.0683594 0.5
vt 0.369141 0.5
vt 0.400391 0.5
vt 0.841797 0.5
vt 0.853516 0.5
vt 0.994141 0.5

# verts
v -0.9 0.3 0.3
v -0.9 0.3 0.2
v -0.9 0.3 0.1
v -0.9 1.6 0.6
v -0.9 1.6 0.3
v -0.9 1.8 0.4
v -0.9 1.8 0.3
v -0.9 1.8 0.2
v -0.9 1.8 0.1
v -0.9 2 0.6
v -0.9 2 0.5
v -0.9 2.2 0.5
v -0.9 2.2 0.4
v -0.7 0.2 0.4
v -0.7 0.2 0.3
v -0.7 0.2 0.2
v -0.7 0.3 0.3
v -0.7 0.3 0.2
v -0.7 0.7 0.4
v -0.7 0.7 0.3
v -0.7 0.8 0.4
v -0.7 0.8 0.3
v -0.7 1.2 0.4
v -0.7 1.2 0.3
v -0.7 1.4 0.4
v -0.7 1.4 0.3
v -0.7 1.6 0.4
v -0.7 1.6 0.3
v -0.5 0.7 0.5
v -0.5 0.7 0.4
v -0.5 0.8 0.4
v -0.5 1.1 0.5
v -0.5 1.1 0.4
v -0.4 0.1 0.5
v -0.4 0.1 0.4
v -0.4 0.1 0.3
v -0.4 0.2 0.4
v -0.4 0.2 0.3
v -0.4 0.7 0.6
v -0.4 0.7 0.5
v -0.4 0.7 0.4
v -0.4 0.9 0.6
v -0.4 0.9 0.5
v -0.4 1.1 0.5
v -0.4 1.1 0.4
v -0.4 1.2 0.5
v -0.4 1.2 0.4
v -0.4 1.3 0.5
v -0.4 1.3 0.4
v -0.4 1.8 0.5
v -0.4 1.8 0.4
v -0.3 0.5 0.6
v -0.3 0.5 0.5
v -0.3 0.7 0.6
v -0.3 0.7 0.5
v -0.2 0.4 0.6
v -0.2 0.4 0.5
v -0.2 0.5 0.7
v -0.2 0.5 0.6
v -0.2 0.5 0.5
v -0.2 0.8 0.7
v -0.2 0.8 0.6
v -0.1 0 0.5
v -0.1 0 0.4
v -0.1 0 0.3
v -0.1 0.1 0.5
v -0.1 0.1 0.4
v -0.1 0.1 0.3
v 0.1 0.4 0.6
v 0.1 0.4 0.5
v 0.1 0.5 0.7
v 0.1 0.5 0.6
v 0.1 0.7 0.5
v 0.1 0.8 0.7
v 0.1 0.8 0.5
v 0.3 0.8 0.6
v 0.3 0.8 0.5
v 0.3 0.9 0.6
v 0.3 0.9 0.5
v 0.4 0.2 0.3
v 0.4 0.2 0.2
v 0.4 1.8 0.3
v 0.4 1.8 0.2
v 0.6 1.6 0.5
v 0.6 1.6 0.4
v 0.6 1.8 0.5
v 0.6 1.8 0.4
v 0.7 0.3 0.2
v 0.7 0.3 0.1
v 0.7 1.6 0.6
v 0.7 1.6 0.5
v 0.7 1.8 0.6
v 0.7 1.8 0.5
v 0.7 1.8 0.4
v 0.7 1.8 0.2
v 0.7 1.8 0.1
v 0.7 2 0.5
v 0.7 2 0.4
v 0.8 1.8 0.6
v 0.8 1.8 0.5
v 0.8 2 0.6
v 0.8 2 0.5
v 0.8 2 0.4
v 0.8 2.2 0.5
v 0.8 2.2 0.4
v -0.8 1.8 0.6
v -0.8 1.8 0.5
v -0.8 2 0.6
v -0.8 2 0.5
v -0.8 2 0.4
v -0.8 2.2 0.5
v -0.8 2.2 0.4
v -0.7 0.3 0.2
v -0.7 0.3 0.1
v -0.7 1.6 0.6
v -0.7 1.6 0.5
v -0.7 1.8 0.6
v -0.7 1.8 0.5
v -0.7 1.8 0.4
v -0.7 1.8 0.2
v -0.7 1.8 0.1
v -0.7 2 0.5
v -0.7 2 0.4
v -0.6 1.6 0.5
v -0.6 1.6 0.4
v -0.6 1.8 0.5
v -0.6 1.8 0.4
v -0.4 0.2 0.3
v -0.4 0.2 0.2
v -0.4 1.8 0.3
v -0.4 1.8 0.2
v -0.3 0.8 0.6
v -0.3 0.8 0.5
v -0.3 0.9 0.6
v -0.3 0.9 0.5
v -0.1 0.4 0.6
v -0.1 0.4 0.5
v -0.1 0.5 0.7
v -0.1 0.5 0.6
v -0.1 0.7 0.5
v -0.1 0.8 0.7
v -0.1 0.8 0.5
v 0.1 0 0.5
v 0.1 0 0.4
v 0.1 0 0.3
v 0.1 0.1 0.5
v 0.1 0.1 0.4
v 0.1 0.1 0.3
v 0.2 0.4 0.6
v 0.2 0.4 0.5
v 0.2 0.5 0.7
v 0.2 0.5 0.6
v 0.2 0.5 0.5
v 0.2 0.8 0.7
v 0.2 0.8 0.6
v 0.3 0.5 0.6
v 0.3 0.5 0.5
v 0.3 0.7 0.6
v 0.3 0.7 0.5
v 0.4 0.1 0.5
v 0.4 0.1 0.4
v 0.4 0.1 0.3
v 0.4 0.2 0.4
v 0.4 0.2 0.3
v 0.4 0.7 0.6
v 0.4 0.7 0.5
v 0.4 0.7 0.4
v 0.4 0.9 0.6
v 0.4 0.9 0.5
v 0.4 1.1 0.5
v 0.4 1.1 0.4
v 0.4 1.2 0.5
v 0.4 1.2 0.4
v 0.4 1.3 0.5
v 0.4 1.3 0.4
v 0.4 1.8 0.5
v 0.4 1.8 0.4
v 0.5 0.7 0.5
v 0.5 0.7 0.4
v 0.5 0.8 0.4
v 0.5 1.1 0.5
v 0.5 1.1 0.4
v 0.7 0.2 0.4
v 0.7 0.2 0.3
v 0.7 0.2 0.2
v 0.7 0.3 0.3
v 0.7 0.3 0.2
v 0.7 0.7 0.4
v 0.7 0.7 0.3
v 0.7 0.8 0.4
v 0.7 0.8 0.3
v 0.7 1.2 0.4
v 0.7 1.2 0.3
v 0.7 1.4 0.4
v 0.7 1.4 0.3
v 0.7 1.6 0.4
v 0.7 1.6 0.3
v 0.9 0.3 0.3
v 0.9 0.3 0.2
v 0.9 0.3 0.1
v 0.9 1.6 0.6
v 0.9 1.6 0.3
v 0.9 1.8 0.4
v 0.9 1.8 0.3
v 0.9 1.8 0.2
v 0.9 1.8 0.1
v 0.9 2 0.6
v 0.9 2 0.5
v 0.9 2.2 0.5
v 0.9 2.2 0.4
v -0.2 0.5 0.7
v -0.2 0.8 0.7
v -0.1 0.5 0.7
v -0.1 0.8 0.7
v 0.1 0.5 0.7
v 0.1 0.8 0.7
v 0.2 0.5 0.7
v 0.2 0.8 0.7
v -0.9 1.6 0.6
v -0.9 2 0.6
v -0.8 1.8 0.6
v -0.8 2 0.6
v -0.7 1.6 0.6
v -0.7 1.8 0.6
v -0.4 0.7 0.6
v -0.4 0.9 0.6
v -0.3 0.5 0.6
v -0.3 0.7 0.6
v -0.3 0.8 0.6
v -0.3 0.9 0.6
v -0.2 0.4 0.6
v -0.2 0.5 0.6
v -0.2 0.8 0.6
v -0.1 0.4 0.6
v -0.1 0.5 0.6
v 0.1 0.4 0.6
v 0.1 0.5 0.6
v 0.2 0.4 0.6
v 0.2 0.5 0.6
v 0.2 0.8 0.6
v 0.3 0.5 0.6
v 0.3 0.7 0.6
v 0.3 0.8 0.6
v 0.3 0.9 0.6
v 0.4 0.7 0.6
v 0.4 0.9 0.6
v 0.7 1.6 0.6
v 0.7 1.8 0.6
v 0.8 1.8 0.6
v 0.8 2 0.6
v 0.9 1.6 0.6
v 0.9 2 0.6
v -0.9 2 0.5
v -0.9 2.2 0.5
v -0.8 1.8 0.5
v -0.8 2 0.5
v -0.8 2.2 0.5
v -0.7 1.6 0.5
v -0.7 1.8 0.5
v -0.7 2 0.5
v -0.6 1.6 0.5
v -0.6 1.8 0.5
v -0.5 0.7 0.5
v -0.5 1.1 0.5
v -0.4 0.1 0.5
v -0.4 0.7 0.5
v -0.4 0.9 0.5
v -0.4 1.1 0.5
v -0.4 1.2 0.5
v -0.4 1.3 0.5
v -0.4 1.8 0.5
v -0.3 0.5 0.5
v -0.3 0.7 0.5
v -0.3 0.8 0.5
v -0.3 0.9 0.5
v -0.3 1.2 0.5
v -0.3 1.3 0.5
v -0.3 1.4 0.5
v -0.3 1.6 0.5
v -0.2 0.4 0.5
v -0.2 0.5 0.5
v -0.2 1.2 0.5
v -0.2 1.3 0.5
v -0.1 0 0.5
v -0.1 0.1 0.5
v -0.1 0.4 0.5
v -0.1 0.7 0.5
v -0.1 0.8 0.5
v -0.1 1.4 0.5
v -0.1 1.6 0.5
v 0.1 0 0.5
v 0.1 0.1 0.5
v 0.1 0.4 0.5
v 0.1 0.7 0.5
v 0.1 0.8 0.5
v 0.1 1.4 0.5
v 0.1 1.6 0.5
v 0.2 0.4 0.5
v 0.2 0.5 0.5
v 0.2 1.2 0.5
v 0.2 1.3 0.5
v 0.3 0.5 0.5
v 0.3 0.7 0.5
v 0.3 0.8 0.5
v 0.3 0.9 0.5
v 0.3 1.2 0.5
v 0.3 1.3 0.5
v 0.3 1.4 0.5
v 0.3 1.6 0.5
v 0.4 0.1 0.5
v 0.4 0.7 0.5
v 0.4 0.9 0.5
v 0.4 1.1 0.5
v 0.4 1.2 0.5
v 0.4 1.3 0.5
v 0.4 1.8 0.5
v 0.5 0.7 0.5
v 0.5 1.1 0.5
v 0.6 1.6 0.5
v 0.6 1.8 0.5
v 0.7 1.6 0.5
v 0.7 1.8 0.5
v 0.7 2 0.5
v 0.8 1.8 0.5
v 0.8 2 0.5
v 0.8 2.2 0.5
v 0.9 2 0.5
v 0.9 2.2 0.5
v -0.7 0.2 0.4
v -0.7 0.7 0.4
v -0.7 0.8 0.4
v -0.7 1.2 0.4
v -0.7 1.4 0.4
v -0.7 1.6 0.4
v -0.6 0.7 0.4
v -0.6 0.8 0.4
v -0.6 1.2 0.4
v -0.6 1.3 0.4
v -0.6 1.6 0.4
v -0.6 1.8 0.4
v -0.5 0.7 0.4
v -0.5 0.8 0.4
v -0.5 1.1 0.4
v -0.5 1.3 0.4
v -0.5 1.4 0.4
v -0.4 0.2 0.4
v -0.4 0.7 0.4
v -0.4 1.1 0.4
v -0.4 1.2 0.4
v -0.4 1.3 0.4
v -0.4 1.8 0.4
v 0.4 0.2 0.4
v 0.4 0.7 0.4
v 0.4 1.1 0.4
v 0.4 1.2 0.4
v 0.4 1.3 0.4
v 0.4 1.8 0.4
v 0.5 0.7 0.4
v 0.5 0.8 0.4
v 0.5 1.1 0.4
v 0.5 1.3 0.4
v 0.5 1.4 0.4
v 0.6 0.7 0.4
v 0.6 0.8 0.4
v 0.6 1.2 0.4
v 0.6 1.3 0.4
v 0.6 1.6 0.4
v 0.6 1.8 0.4
v 0.7 0.2 0.4
v 0.7 0.7 0.4
v 0.7 0.8 0.4
v 0.7 1.2 0.4
v 0.7 1.4 0.4
v 0.7 1.6 0.4
v -0.9 0.3 0.3
v -0.9 1.6 0.3
v -0.7 0.3 0.3
v -0.7 0.7 0.3
v -0.7 0.8 0.3
v -0.7 1.2 0.3
v -0.7 1.4 0.3
v -0.7 1.6 0.3
v 0.7 0.3 0.3
v 0.7 0.7 0.3
v 0.7 0.8 0.3
v 0.7 1.2 0.3
v 0.7 1.4 0.3
v 0.7 1.6 0.3
v 0.9 0.3 0.3
v 0.9 1.6 0.3
v -0.9 1.8 0.4
v -0.9 2.2 0.4
v -0.8 2 0.4
v -0.8 2.2 0.4
v -0.7 1.8 0.4
v -0.7 2 0.4
v 0.7 1.8 0.4
v 0.7 2 0.4
v 0.8 2 0.4
v 0.8 2.2 0.4
v 0.9 1.8 0.4
v 0.9 2.2 0.4
v -0.4 0.1 0.3
v -0.4 0.2 0.3
v -0.4 1.8 0.3
v -0.1 0 0.3
v -0.1 0.1 0.3
v 0.1 0 0.3
v 0.1 0.1 0.3
v 0.4 0.1 0.3
v 0.4 0.2 0.3
v 0.4 1.8 0.3
v -0.7 0.2 0.2
v -0.7 0.3 0.2
v -0.7 1.8 0.2
v -0.4 0.2 0.2
v -0.4 1.8 0.2
v 0.4 0.2 0.2
v 0.4 1.8 0.2
v 0.7 0.2 0.2
v 0.7 0.3 0.2
v 0.7 1.8 0.2
v -0.9 0.3 0.1
v -0.9 1.8 0.1
v -0.7 0.3 0.1
v -0.7 1.8 0.1
v 0.7 0.3 0.1
v 0.7 1.8 0.1
v 0.9 0.3 0.1
v 0.9 1.8 0.1
v -0.1 0 0.5
v 0.1 0 0.5
v -0.1 0 0.4
v 0.1 0 0.4
v -0.1 0 0.3
v 0.1 0 0.3
v -0.4 0.1 0.5
v -0.1 0.1 0.5
v 0.1 0.1 0.5
v 0.4 0.1 0.5
v -0.4 0.1 0.4
v -0.1 0.1 0.4
v 0.1 0.1 0.4
v 0.4 0.1 0.4
v -0.4 0.1 0.3
v -0.1 0.1 0.3
v 0.1 0.1 0.3
v 0.4 0.1 0.3
v -0.7 0.2 0.4
v -0.4 0.2 0.4
v 0.4 0.2 0.4
v 0.7 0.2 0.4
v -0.7 0.2 0.3
v -0.4 0.2 0.3
v 0.4 0.2 0.3
v 0.7 0.2 0.3
v -0.7 0.2 0.2
v -0.4 0.2 0.2
v 0.4 0.2 0.2
v 0.7 0.2 0.2
v -0.9 0.3 0.3
v -0.7 0.3 0.3
v 0.7 0.3 0.3
v 0.9 0.3 0.3
v -0.9 0.3 0.2
v -0.7 0.3 0.2
v 0.7 0.3 0.2
v 0.9 0.3 0.2
v -0.9 0.3 0.1
v -0.7 0.3 0.1
v 0.7 0.3 0.1
v 0.9 0.3 0.1
v -0.2 0.4 0.6
v -0.1 0.4 0.6
v 0.1 0.4 0.6
v 0.2 0.4 0.6
v -0.2 0.4 0.5
v -0.1 0.4 0.5
v 0.1 0.4 0.5
v 0.2 0.4 0.5
v -0.2 0.5 0.7
v -0.1 0.5 0.7
v 0.1 0.5 0.7
v 0.2 0.5 0.7
v -0.3 0.5 0.6
v -0.2 0.5 0.6
v -0.1 0.5 0.6
v 0.1 0.5 0.6
v 0.2 0.5 0.6
v 0.3 0.5 0.6
v -0.3 0.5 0.5
v -0.2 0.5 0.5
v 0.2 0.5 0.5
v 0.3 0.5 0.5
v -0.4 0.7 0.6
v -0.3 0.7 0.6
v 0.3 0.7 0.6
v 0.4 0.7 0.6
v -0.5 0.7 0.5
v -0.4 0.7 0.5
v -0.3 0.7 0.5
v 0.3 0.7 0.5
v 0.4 0.7 0.5
v 0.5 0.7 0.5
v -0.5 0.7 0.4
v -0.4 0.7 0.4
v 0.4 0.7 0.4
v 0.5 0.7 0.4
v -0.9 1.6 0.6
v -0.7 1.6 0.6
v 0.7 1.6 0.6
v 0.9 1.6 0.6
v -0.7 1.6 0.5
v -0.6 1.6 0.5
v 0.6 1.6 0.5
v 0.7 1.6 0.5
v -0.7 1.6 0.4
v -0.6 1.6 0.4
v 0.6 1.6 0.4
v 0.7 1.6 0.4
v -0.9 1.6 0.3
v -0.7 1.6 0.3
v 0.7 1.6 0.3
v 0.9 1.6 0.3
v -0.2 0.8 0.7
v -0.1 0.8 0.7
v 0.1 0.8 0.7
v 0.2 0.8 0.7
v -0.3 0.8 0.6
v -0.2 0.8 0.6
v 0.2 0.8 0.6
v 0.3 0.8 0.6
v -0.3 0.8 0.5
v -0.1 0.8 0.5
v 0.1 0.8 0.5
v 0.3 0.8 0.5
v -0.4 0.9 0.6
v -0.3 0.9 0.6
v 0.3 0.9 0.6
v 0.4 0.9 0.6
v -0.4 0.9 0.5
v -0.3 0.9 0.5
v 0.3 0.9 0.5
v 0.4 0.9 0.5
v -0.5 1.1 0.5
v -0.4 1.1 0.5
v 0.4 1.1 0.5
v 0.5 1.1 0.5
v -0.5 1.1 0.4
v -0.4 1.1 0.4
v 0.4 1.1 0.4
v 0.5 1.1 0.4
v -0.8 1.8 0.6
v -0.7 1.8 0.6
v 0.7 1.8 0.6
v 0.8 1.8 0.6
v -0.8 1.8 0.5
v -0.7 1.8 0.5
v -0.6 1.8 0.5
v -0.4 1.8 0.5
v 0.4 1.8 0.5
v 0.6 1.8 0.5
v 0.7 1.8 0.5
v 0.8 1.8 0.5
v -0.9 1.8 0.4
v -0.7 1.8 0.4
v -0.6 1.8 0.4
v -0.4 1.8 0.4
v 0.4 1.8 0.4
v 0.6 1.8 0.4
v 0.7 1.8 0.4
v 0.9 1.8 0.4
v -0.9 1.8 0.3
v -0.7 1.8 0.3
v -0.4 1.8 0.3
v 0.4 1.8 0.3
v 0.7 1.8 0.3
v 0.9 1.8 0.3
v -0.9 1.8 0.2
v -0.7 1.8 0.2
v -0.4 1.8 0.2
v 0.4 1.8 0.2
v 0.7 1.8 0.2
v 0.9 1.8 0.2
v -0.9 1.8 0.1
v -0.7 1.8 0.1
v 0.7 1.8 0.1
v 0.9 1.8 0.1
v -0.9 2 0.6
v -0.8 2 0.6
v 0.8 2 0.6
v 0.9 2 0.6
v -0.9 2 0.5
v -0.8 2 0.5
v -0.7 2 0.5
v 0.7 2 0.5
v 0.8 2 0.5
v 0.9 2 0.5
v -0.8 2 0.4
v -0.7 2 0.4
v 0.7 2 0.4
v 0.8 2 0.4
v -0.9 2.2 0.5
v -0.8 2.2 0.5
v 0.8 2.2 0.5
v 0.9 2.2 0.5
v -0.9 2.2 0.4
v -0.8 2.2 0.4
v 0.8 2.2 0.4
v 0.9 2.2 0.4

# faces
f 5/3/1 2/3/1 1/3/1
f 6/2/1 5/2/1 4/2/1
f 7/3/1 2/3/1 5/3/1
f 7/2/1 5/2/1 6/2/1
f 8/4/1 3/4/1 2/4/1
f 8/3/1 2/3/1 7/3/1
f 9/4/1 3/4/1 8/4/1
f 10/2/1 6/2/1 4/2/1
f 11/2/1 6/2/1 10/2/1
f 12/2/1 6/2/1 11/2/1
f 13/2/1 6/2/1 12/2/1
f 17/3/1 15/3/1 14/3/1
f 17/4/1 16/4/1 15/4/1
f 18/4/1 16/4/1 17/4/1
f 19/3/1 17/3/1 14/3/1
f 20/3/1 17/3/1 19/3/1
f 21/5/1 20/5/1 19/5/1
f 22/5/1 20/5/1 21/5/1
f 23/3/1 22/3/1 21/3/1
f 24/3/1 22/3/1 23/3/1
f 25/5/1 24/5/1 23/5/1
f 26/5/1 24/5/1 25/5/1
f 27/3/1 26/3/1 25/3/1
f 28/3/1 26/3/1 27/3/1
f 31/2/1 30/2/1 29/2/1
f 32/2/1 31/2/1 29/2/1
f 33/2/1 31/2/1 32/2/1
f 37/3/1 35/3/1 34/3/1
f 37/4/1 36/4/1 35/4/1
f 38/4/1 36/4/1 37/4/1
f 40/3/1 37/3/1 34/3/1
f 41/3/1 37/3/1 40/3/1
f 42/2/1 40/2/1 39/2/1
f 43/2/1 40/2/1 42/2/1
f 46/3/1 45/3/1 44/3/1
f 47/3/1 45/3/1 46/3/1
f 48/1/1 47/1/1 46/1/1
f 49/1/1 47/1/1 48/1/1
f 50/3/1 49/3/1 48/3/1
f 51/3/1 49/3/1 50/3/1
f 54/2/1 53/2/1 52/2/1
f 55/2/1 53/2/1 54/2/1
f 59/2/1 57/2/1 56/2/1
f 60/2/1 57/2/1 59/2/1
f 61/2/1 59/2/1 58/2/1
f 62/2/1 59/2/1 61/2/1
f 66/3/1 64/3/1 63/3/1
f 67/4/1 65/4/1 64/4/1
f 67/3/1 64/3/1 66/3/1
f 68/4/1 65/4/1 67/4/1
f 72/2/1 70/2/1 69/2/1
f 73/2/1 70/2/1 72/2/1
f 73/2/1 72/2/1 71/2/1
f 74/2/1 73/2/1 71/2/1
f 75/2/1 73/2/1 74/2/1
f 78/2/1 77/2/1 76/2/1
f 79/2/1 77/2/1 78/2/1
f 82/4/1 81/4/1 80/4/1
f 83/4/1 81/4/1 82/4/1
f 86/2/1 85/2/1 84/2/1
f 87/2/1 85/2/1 86/2/1
f 92/2/1 91/2/1 90/2/1
f 93/2/1 91/2/1 92/2/1
f 95/4/1 89/4/1 88/4/1
f 96/4/1 89/4/1 95/4/1
f 97/2/1 94/2/1 93/2/1
f 98/2/1 94/2/1 97/2/1
f 101/2/1 100/2/1 99/2/1
f 102/2/1 100/2/1 101/2/1
f 104/2/1 103/2/1 102/2/1
f 105/2/1 103/2/1 104/2/1
f 106/2/2 107/2/2 108/2/2
f 108/2/2 107/2/2 109/2/2
f 109/2/2 110/2/2 111/2/2
f 111/2/2 110/2/2 112/2/2
f 115/2/2 116/2/2 117/2/2
f 117/2/2 116/2/2 118/2/2
f 113/4/2 114/4/2 120/4/2
f 120/4/2 114/4/2 121/4/2
f 118/2/2 119/2/2 122/2/2
f 122/2/2 119/2/2 123/2/2
f 124/2/2 125/2/2 126/2/2
f 126/2/2 125/2/2 127/2/2
f 128/4/2 129/4/2 130/4/2
f 130/4/2 129/4/2 131/4/2
f 132/2/2 133/2/2 134/2/2
f 134/2/2 133/2/2 135/2/2
f 136/2/2 137/2/2 139/2/2
f 139/2/2 137/2/2 140/2/2
f 138/2/2 139/2/2 140/2/2
f 138/2/2 140/2/2 141/2/2
f 141/2/2 140/2/2 142/2/2
f 143/3/2 144/3/2 146/3/2
f 144/4/2 145/4/2 147/4/2
f 146/3/2 144/3/2 147/3/2
f 147/4/2 145/4/2 148/4/2
f 149/2/2 150/2/2 152/2/2
f 152/2/2 150/2/2 153/2/2
f 151/2/2 152/2/2 154/2/2
f 154/2/2 152/2/2 155/2/2
f 156/2/2 157/2/2 158/2/2
f 158/2/2 157/2/2 159/2/2
f 160/3/2 161/3/2 163/3/2
f 161/4/2 162/4/2 163/4/2
f 163/4/2 162/4/2 164/4/2
f 160/3/2 163/3/2 166/3/2
f 166/3/2 163/3/2 167/3/2
f 165/2/2 166/2/2 168/2/2
f 168/2/2 166/2/2 169/2/2
f 170/3/2 171/3/2 172/3/2
f 172/3/2 171/3/2 173/3/2
f 172/1/2 173/1/2 174/1/2
f 174/1/2 173/1/2 175/1/2
f 174/3/2 175/3/2 176/3/2
f 176/3/2 175/3/2 177/3/2
f 178/2/2 179/2/2 180/2/2
f 178/2/2 180/2/2 181/2/2
f 181/2/2 180/2/2 182/2/2
f 183/3/2 184/3/2 186/3/2
f 184/4/2 185/4/2 186/4/2
f 186/4/2 185/4/2 187/4/2
f 183/3/2 186/3/2 188/3/2
f 188/3/2 186/3/2 189/3/2
f 188/5/2 189/5/2 190/5/2
f 190/5/2 189/5/2 191/5/2
f 190/3/2 191/3/2 192/3/2
f 192/3/2 191/3/2 193/3/2
f 192/5/2 193/5/2 194/5/2
f 194/5/2 193/5/2 195/5/2
f 194/3/2 195/3/2 196/3/2
f 196/3/2 195/3/2 197/3/2
f 198/3/2 199/3/2 202/3/2
f 201/2/2 202/2/2 203/2/2
f 202/3/2 199/3/2 204/3/2
f 203/2/2 202/2/2 204/2/2
f 199/4/2 200/4/2 205/4/2
f 204/3/2 199/3/2 205/3/2
f 205/4/2 200/4/2 206/4/2
f 201/2/2 203/2/2 207/2/2
f 207/2/2 203/2/2 208/2/2
f 208/2/2 203/2/2 209/2/2
f 209/2/2 203/2/2 210/2/2
f 213/2/3 212/2/3 211/2/3
f 214/2/3 212/2/3 213/2/3
f 217/2/3 216/2/3 215/2/3
f 218/2/3 216/2/3 217/2/3
f 221/2/3 220/2/3 219/2/3
f 222/2/3 220/2/3 221/2/3
f 223/2/3 221/2/3 219/2/3
f 224/2/3 221/2/3 223/2/3
f 228/2/3 226/2/3 225/2/3
f 229/2/3 226/2/3 228/2/3
f 230/2/3 226/2/3 229/2/3
f 232/2/3 228/2/3 227/2/3
f 232/2/3 229/2/3 228/2/3
f 233/2/3 229/2/3 232/2/3
f 234/2/3 232/2/3 231/2/3
f 235/2/3 232/2/3 234/2/3
f 238/2/3 237/2/3 236/2/3
f 239/2/3 237/2/3 238/2/3
f 241/2/3 240/2/3 239/2/3
f 242/2/3 240/2/3 241/2/3
f 243/2/3 240/2/3 242/2/3
f 245/2/3 243/2/3 242/2/3
f 245/2/3 244/2/3 243/2/3
f 246/2/3 244/2/3 245/2/3
f 249/2/3 248/2/3 247/2/3
f 251/2/3 249/2/3 247/2/3
f 251/2/3 250/2/3 249/2/3
f 252/2/3 250/2/3 251/2/3
f 256/2/3 254/2/3 253/2/3
f 257/2/3 254/2/3 256/2/3
f 259/2/3 256/2/3 255/2/3
f 260/2/3 256/2/3 259/2/3
f 261/2/3 259/2/3 258/2/3
f 262/2/3 259/2/3 261/2/3
f 266/2/3 264/2/3 263/2/3
f 267/2/3 264/2/3 266/2/3
f 268/2/3 264/2/3 267/2/3
f 272/3/3 266/3/3 265/3/3
f 273/3/3 266/3/3 272/3/3
f 275/3/3 268/3/3 267/3/3
f 275/3/3 269/3/3 268/3/3
f 276/1/3 270/1/3 269/1/3
f 276/3/3 269/3/3 275/3/3
f 277/3/3 271/3/3 270/3/3
f 277/1/3 270/1/3 276/1/3
f 278/3/3 271/3/3 277/3/3
f 279/3/3 271/3/3 278/3/3
f 280/3/3 272/3/3 265/3/3
f 281/3/3 272/3/3 280/3/3
f 282/3/3 276/3/3 275/3/3
f 282/3/3 275/3/3 274/3/3
f 282/7/3 277/7/3 276/7/3
f 283/3/3 278/3/3 277/3/3
f 283/7/3 277/7/3 282/7/3
f 285/3/3 280/3/3 265/3/3
f 286/3/3 280/3/3 285/3/3
f 288/3/3 283/3/3 282/3/3
f 288/3/3 282/3/3 274/3/3
f 289/3/3 278/3/3 283/3/3
f 289/7/3 279/7/3 278/7/3
f 289/3/3 283/3/3 288/3/3
f 290/3/3 271/3/3 279/3/3
f 290/7/3 279/7/3 289/7/3
f 291/3/3 287/3/3 286/3/3
f 291/3/3 286/3/3 285/3/3
f 291/3/3 285/3/3 284/3/3
f 292/3/3 287/3/3 291/3/3
f 293/3/3 287/3/3 292/3/3
f 294/7/3 288/7/3 287/7/3
f 294/3/3 287/3/3 293/3/3
f 295/3/3 289/3/3 288/3/3
f 295/7/3 288/7/3 294/7/3
f 295/3/3 290/3/3 289/3/3
f 296/3/3 290/3/3 295/3/3
f 297/3/3 271/3/3 290/3/3
f 297/3/3 290/3/3 296/3/3
f 298/3/3 293/3/3 292/3/3
f 300/3/3 296/3/3 295/3/3
f 301/3/3 296/3/3 300/3/3
f 302/3/3 299/3/3 298/3/3
f 304/3/3 300/3/3 295/3/3
f 305/3/3 300/3/3 304/3/3
f 306/7/3 301/7/3 300/7/3
f 306/3/3 300/3/3 305/3/3
f 307/3/3 296/3/3 301/3/3
f 307/7/3 301/7/3 306/7/3
f 308/7/3 297/7/3 296/7/3
f 308/3/3 296/3/3 307/3/3
f 309/3/3 271/3/3 297/3/3
f 309/7/3 297/7/3 308/7/3
f 310/3/3 298/3/3 292/3/3
f 310/3/3 303/3/3 302/3/3
f 310/3/3 302/3/3 298/3/3
f 311/3/3 303/3/3 310/3/3
f 312/3/3 306/3/3 305/3/3
f 313/3/3 306/3/3 312/3/3
f 314/1/3 307/1/3 306/1/3
f 314/3/3 306/3/3 313/3/3
f 315/3/3 308/3/3 307/3/3
f 315/1/3 307/1/3 314/1/3
f 315/3/3 309/3/3 308/3/3
f 316/3/3 271/3/3 309/3/3
f 316/3/3 309/3/3 315/3/3
f 317/2/3 313/2/3 312/2/3
f 317/2/3 312/2/3 311/2/3
f 318/2/3 313/2/3 317/2/3
f 321/2/3 320/2/3 319/2/3
f 322/2/3 320/2/3 321/2/3
f 324/2/3 323/2/3 322/2/3
f 325/2/3 323/2/3 324/2/3
f 327/2/3 326/2/3 325/2/3
f 328/2/3 326/2/3 327/2/3
f 335/3/3 330/3/3 329/3/3
f 335/5/3 331/5/3 330/5/3
f 336/3/3 332/3/3 331/3/3
f 336/5/3 331/5/3 335/5/3
f 337/5/3 333/5/3 332/5/3
f 337/3/3 332/3/3 336/3/3
f 338/5/3 333/5/3 337/5/3
f 339/3/3 334/3/3 333/3/3
f 341/7/3 336/7/3 335/7/3
f 341/3/3 335/3/3 329/3/3
f 342/3/3 337/3/3 336/3/3
f 342/7/3 336/7/3 341/7/3
f 343/3/3 337/3/3 342/3/3
f 344/5/3 333/5/3 338/5/3
f 344/7/3 338/7/3 337/7/3
f 345/3/3 340/3/3 339/3/3
f 345/5/3 333/5/3 344/5/3
f 345/3/3 339/3/3 333/3/3
f 346/3/3 341/3/3 329/3/3
f 347/3/3 341/3/3 346/3/3
f 348/3/3 337/3/3 343/3/3
f 349/7/3 344/7/3 337/7/3
f 349/3/3 337/3/3 348/3/3
f 350/3/3 345/3/3 344/3/3
f 350/7/3 344/7/3 349/7/3
f 351/3/3 340/3/3 345/3/3
f 351/3/3 345/3/3 350/3/3
f 358/3/3 353/3/3 352/3/3
f 360/3/3 355/3/3 354/3/3
f 361/3/3 357/3/3 356/3/3
f 361/7/3 356/7/3 355/7/3
f 362/3/3 357/3/3 361/3/3
f 363/7/3 359/7/3 358/7/3
f 363/3/3 358/3/3 352/3/3
f 364/3/3 360/3/3 359/3/3
f 364/7/3 359/7/3 363/7/3
f 365/3/3 355/3/3 360/3/3
f 365/3/3 360/3/3 364/3/3
f 365/7/3 361/7/3 355/7/3
f 366/5/3 362/5/3 361/5/3
f 366/7/3 361/7/3 365/7/3
f 367/3/3 357/3/3 362/3/3
f 368/3/3 357/3/3 367/3/3
f 369/3/3 363/3/3 352/3/3
f 370/5/3 364/5/3 363/5/3
f 370/3/3 363/3/3 369/3/3
f 371/3/3 365/3/3 364/3/3
f 371/5/3 364/5/3 370/5/3
f 372/5/3 366/5/3 365/5/3
f 372/3/3 365/3/3 371/3/3
f 373/5/3 362/5/3 366/5/3
f 373/5/3 366/5/3 372/5/3
f 373/3/3 367/3/3 362/3/3
f 374/3/3 367/3/3 373/3/3
f 377/3/3 376/3/3 375/3/3
f 378/3/3 376/3/3 377/3/3
f 379/3/3 376/3/3 378/3/3
f 380/3/3 376/3/3 379/3/3
f 381/3/3 376/3/3 380/3/3
f 382/3/3 376/3/3 381/3/3
f 389/3/3 384/3/3 383/3/3
f 389/3/3 388/3/3 387/3/3
f 389/3/3 387/3/3 386/3/3
f 389/3/3 386/3/3 385/3/3
f 389/3/3 385/3/3 384/3/3
f 390/3/3 388/3/3 389/3/3
f 391/2/4 392/2/4 393/2/4
f 393/2/4 392/2/4 394/2/4
f 391/2/4 393/2/4 395/2/4
f 395/2/4 393/2/4 396/2/4
f 397/2/4 398/2/4 399/2/4
f 397/2/4 399/2/4 401/2/4
f 399/2/4 400/2/4 401/2/4
f 401/2/4 400/2/4 402/2/4
f 403/4/4 404/4/4 407/4/4
f 404/4/4 405/4/4 407/4/4
f 406/4/4 407/4/4 408/4/4
f 407/4/4 405/4/4 409/4/4
f 408/4/4 407/4/4 409/4/4
f 409/4/4 405/4/4 410/4/4
f 410/4/4 405/4/4 411/4/4
f 411/4/4 405/4/4 412/4/4
f 413/4/4 414/4/4 416/4/4
f 414/4/4 415/4/4 416/4/4
f 416/4/4 415/4/4 417/4/4
f 418/4/4 419/4/4 420/4/4
f 420/4/4 419/4/4 421/4/4
f 421/4/4 419/4/4 422/4/4
f 423/4/4 424/4/4 425/4/4
f 425/4/4 424/4/4 426/4/4
f 427/4/4 428/4/4 429/4/4
f 429/4/4 428/4/4 430/4/4
f 433/3/5 432/3/5 431/3/5
f 434/3/5 432/3/5 433/3/5
f 435/4/5 434/4/5 433/4/5
f 436/4/5 434/4/5 435/4/5
f 441/3/5 438/3/5 437/3/5
f 442/3/5 438/3/5 441/3/5
f 443/3/5 440/3/5 439/3/5
f 444/3/5 440/3/5 443/3/5
f 445/4/5 442/4/5 441/4/5
f 446/4/5 442/4/5 445/4/5
f 447/4/5 444/4/5 443/4/5
f 448/4/5 444/4/5 447/4/5
f 453/3/5 450/3/5 449/3/5
f 454/3/5 450/3/5 453/3/5
f 455/3/5 452/3/5 451/3/5
f 456/3/5 452/3/5 455/3/5
f 457/4/5 454/4/5 453/4/5
f 458/4/5 454/4/5 457/4/5
f 459/4/5 456/4/5 455/4/5
f 460/4/5 456/4/5 459/4/5
f 465/3/5 462/3/5 461/3/5
f 466/3/5 462/3/5 465/3/5
f 467/3/5 464/3/5 463/3/5
f 468/3/5 464/3/5 467/3/5
f 469/4/5 466/4/5 465/4/5
f 470/4/5 466/4/5 469/4/5
f 471/4/5 468/4/5 467/4/5
f 472/4/5 468/4/5 471/4/5
f 477/2/5 474/2/5 473/2/5
f 478/2/5 474/2/5 477/2/5
f 479/2/5 476/2/5 475/2/5
f 480/2/5 476/2/5 479/2/5
f 486/2/5 482/2/5 481/2/5
f 487/2/5 482/2/5 486/2/5
f 488/2/5 484/2/5 483/2/5
f 489/2/5 484/2/5 488/2/5
f 491/2/5 486/2/5 485/2/5
f 492/2/5 486/2/5 491/2/5
f 493/2/5 490/2/5 489/2/5
f 494/2/5 490/2/5 493/2/5
f 500/2/5 496/2/5 495/2/5
f 501/2/5 496/2/5 500/2/5
f 502/2/5 498/2/5 497/2/5
f 503/2/5 498/2/5 502/2/5
f 505/2/5 500/2/5 499/2/5
f 506/2/5 500/2/5 505/2/5
f 507/2/5 504/2/5 503/2/5
f 508/2/5 504/2/5 507/2/5
f 513/2/5 510/2/5 509/2/5
f 516/2/5 512/2/5 511/2/5
f 517/2/5 514/2/5 513/2/5
f 517/2/5 513/2/5 509/2/5
f 518/2/5 514/2/5 517/2/5
f 519/2/5 516/2/5 515/2/5
f 520/2/5 512/2/5 516/2/5
f 520/2/5 516/2/5 519/2/5
f 521/2/5 517/2/5 509/2/5
f 522/2/5 517/2/5 521/2/5
f 523/2/5 512/2/5 520/2/5
f 524/2/5 512/2/5 523/2/5
f 525/2/6 526/2/6 530/2/6
f 527/2/6 528/2/6 531/2/6
f 529/2/6 530/2/6 533/2/6
f 530/2/6 526/2/6 534/2/6
f 533/2/6 530/2/6 534/2/6
f 531/2/6 532/2/6 535/2/6
f 527/2/6 531/2/6 535/2/6
f 535/2/6 532/2/6 536/2/6
f 537/2/6 538/2/6 541/2/6
f 541/2/6 538/2/6 542/2/6
f 539/2/6 540/2/6 543/2/6
f 543/2/6 540/2/6 544/2/6
f 545/2/6 546/2/6 549/2/6
f 549/2/6 546/2/6 550/2/6
f 547/2/6 548/2/6 551/2/6
f 551/2/6 548/2/6 552/2/6
f 553/2/6 554/2/6 557/2/6
f 557/2/6 554/2/6 558/2/6
f 555/2/6 556/2/6 563/2/6
f 563/2/6 556/2/6 564/2/6
f 558/2/6 559/2/6 566/2/6
f 566/2/6 559/2/6 567/2/6
f 560/3/6 561/3/6 568/3/6
f 568/3/6 561/3/6 569/3/6
f 562/2/6 563/2/6 570/2/6
f 570/2/6 563/2/6 571/2/6
f 565/2/6 566/2/6 573/2/6
f 566/3/6 567/3/6 574/3/6
f 573/2/6 566/2/6 574/2/6
f 567/3/6 568/3/6 574/3/6
f 568/4/6 569/4/6 575/4/6
f 574/3/6 568/3/6 575/3/6
f 570/3/6 571/3/6 576/3/6
f 575/4/6 569/4/6 576/4/6
f 569/3/6 570/3/6 576/3/6
f 571/2/6 572/2/6 577/2/6
f 576/3/6 571/3/6 577/3/6
f 577/2/6 572/2/6 578/2/6
f 573/3/6 574/3/6 579/3/6
f 574/4/6 575/4/6 580/4/6
f 579/3/6 574/3/6 580/3/6
f 580/4/6 575/4/6 581/4/6
f 576/4/6 577/4/6 582/4/6
f 577/3/6 578/3/6 583/3/6
f 582/4/6 577/4/6 583/4/6
f 583/3/6 578/3/6 584/3/6
f 579/4/6 580/4/6 585/4/6
f 585/4/6 580/4/6 586/4/6
f 583/4/6 584/4/6 587/4/6
f 587/4/6 584/4/6 588/4/6
f 589/2/6 590/2/6 593/2/6
f 593/2/6 590/2/6 594/2/6
f 591/2/6 592/2/6 597/2/6
f 597/2/6 592/2/6 598/2/6
f 594/2/6 595/2/6 599/2/6
f 599/2/6 595/2/6 600/2/6
f 596/2/6 597/2/6 601/2/6
f 601/2/6 597/2/6 602/2/6
f 603/2/6 604/2/6 607/2/6
f 607/2/6 604/2/6 608/2/6
f 605/2/6 606/2/6 609/2/6
f 609/2/6 606/2/6 610/2/6
