# MagicaVoxel @ Ephtracy

# group
o 

# material
mtllib Oni Water.mtl
usemtl palette

# normals
vn -1 0 0
vn 1 0 0
vn 0 0 1
vn 0 0 -1
vn 0 -1 0
vn 0 1 0

# texcoords
vt 0.0683594 0.5
vt 0.400391 0.5
vt 0.822266 0.5
vt 0.830078 0.5
vt 0.853516 0.5
vt 0.994141 0.5

# verts
v -0.9 0.3 0.3
v -0.9 0.3 0.2
v -0.9 0.3 0.1
v -0.9 1.6 0.6
v -0.9 1.6 0.3
v -0.9 1.8 0.4
v -0.9 1.8 0.3
v -0.9 1.8 0.2
v -0.9 1.8 0.1
v -0.9 2 0.6
v -0.9 2 0.5
v -0.9 2.2 0.5
v -0.9 2.2 0.4
v -0.7 0.2 0.4
v -0.7 0.2 0.3
v -0.7 0.2 0.2
v -0.7 0.3 0.3
v -0.7 0.3 0.2
v -0.7 1.6 0.4
v -0.7 1.6 0.3
v -0.5 0.7 0.7
v -0.5 0.7 0.4
v -0.5 1 0.7
v -0.5 1 0.6
v -0.5 1.1 0.6
v -0.5 1.1 0.4
v -0.4 0.1 0.5
v -0.4 0.1 0.4
v -0.4 0.1 0.3
v -0.4 0.2 0.4
v -0.4 0.2 0.3
v -0.4 0.5 0.4
v -0.4 0.6 0.5
v -0.4 0.6 0.4
v -0.4 0.7 0.5
v -0.4 0.7 0.4
v -0.4 1.1 0.5
v -0.4 1.1 0.4
v -0.4 1.3 0.4
v -0.4 1.4 0.5
v -0.4 1.4 0.4
v -0.4 1.5 0.5
v -0.4 1.5 0.4
v -0.4 1.6 0.5
v -0.4 1.6 0.4
v -0.4 1.8 0.5
v -0.4 1.8 0.4
v -0.3 0.4 0.6
v -0.3 0.4 0.5
v -0.3 0.6 0.5
v -0.3 0.7 0.6
v -0.3 0.7 0.5
v -0.2 0.3 0.6
v -0.2 0.3 0.5
v -0.2 0.4 0.7
v -0.2 0.4 0.6
v -0.2 0.4 0.5
v -0.2 0.7 0.7
v -0.2 0.7 0.6
v -0.1 0 0.5
v -0.1 0 0.4
v -0.1 0 0.3
v -0.1 0.1 0.5
v -0.1 0.1 0.4
v -0.1 0.1 0.3
v 0.1 0.3 0.6
v 0.1 0.3 0.5
v 0.1 0.4 0.7
v 0.1 0.4 0.6
v 0.1 0.6 0.5
v 0.1 0.7 0.7
v 0.1 0.7 0.5
v 0.3 0.7 0.6
v 0.3 0.7 0.5
v 0.3 0.9 0.6
v 0.3 0.9 0.5
v 0.4 0.2 0.3
v 0.4 0.2 0.2
v 0.4 0.7 0.7
v 0.4 0.7 0.6
v 0.4 0.9 0.6
v 0.4 0.9 0.5
v 0.4 1 0.7
v 0.4 1 0.6
v 0.4 1.1 0.6
v 0.4 1.1 0.5
v 0.4 1.8 0.3
v 0.4 1.8 0.2
v 0.6 1.6 0.5
v 0.6 1.6 0.4
v 0.6 1.8 0.5
v 0.6 1.8 0.4
v 0.7 0.3 0.2
v 0.7 0.3 0.1
v 0.7 1.6 0.6
v 0.7 1.6 0.5
v 0.7 1.8 0.6
v 0.7 1.8 0.5
v 0.7 1.8 0.4
v 0.7 1.8 0.2
v 0.7 1.8 0.1
v 0.7 2 0.5
v 0.7 2 0.4
v 0.8 1.8 0.6
v 0.8 1.8 0.5
v 0.8 2 0.6
v 0.8 2 0.5
v 0.8 2 0.4
v 0.8 2.2 0.5
v 0.8 2.2 0.4
v -0.8 1.8 0.6
v -0.8 1.8 0.5
v -0.8 2 0.6
v -0.8 2 0.5
v -0.8 2 0.4
v -0.8 2.2 0.5
v -0.8 2.2 0.4
v -0.7 0.3 0.2
v -0.7 0.3 0.1
v -0.7 1.6 0.6
v -0.7 1.6 0.5
v -0.7 1.8 0.6
v -0.7 1.8 0.5
v -0.7 1.8 0.4
v -0.7 1.8 0.2
v -0.7 1.8 0.1
v -0.7 2 0.5
v -0.7 2 0.4
v -0.6 1.6 0.5
v -0.6 1.6 0.4
v -0.6 1.8 0.5
v -0.6 1.8 0.4
v -0.4 0.2 0.3
v -0.4 0.2 0.2
v -0.4 0.7 0.7
v -0.4 0.7 0.6
v -0.4 0.9 0.6
v -0.4 0.9 0.5
v -0.4 1 0.7
v -0.4 1 0.6
v -0.4 1.1 0.6
v -0.4 1.1 0.5
v -0.4 1.8 0.3
v -0.4 1.8 0.2
v -0.3 0.7 0.6
v -0.3 0.7 0.5
v -0.3 0.9 0.6
v -0.3 0.9 0.5
v -0.1 0.3 0.6
v -0.1 0.3 0.5
v -0.1 0.4 0.7
v -0.1 0.4 0.6
v -0.1 0.6 0.5
v -0.1 0.7 0.7
v -0.1 0.7 0.5
v 0.1 0 0.5
v 0.1 0 0.4
v 0.1 0 0.3
v 0.1 0.1 0.5
v 0.1 0.1 0.4
v 0.1 0.1 0.3
v 0.2 0.3 0.6
v 0.2 0.3 0.5
v 0.2 0.4 0.7
v 0.2 0.4 0.6
v 0.2 0.4 0.5
v 0.2 0.7 0.7
v 0.2 0.7 0.6
v 0.3 0.4 0.6
v 0.3 0.4 0.5
v 0.3 0.6 0.5
v 0.3 0.7 0.6
v 0.3 0.7 0.5
v 0.4 0.1 0.5
v 0.4 0.1 0.4
v 0.4 0.1 0.3
v 0.4 0.2 0.4
v 0.4 0.2 0.3
v 0.4 0.5 0.4
v 0.4 0.6 0.5
v 0.4 0.6 0.4
v 0.4 0.7 0.5
v 0.4 0.7 0.4
v 0.4 1.1 0.5
v 0.4 1.1 0.4
v 0.4 1.3 0.4
v 0.4 1.4 0.5
v 0.4 1.4 0.4
v 0.4 1.5 0.5
v 0.4 1.5 0.4
v 0.4 1.6 0.5
v 0.4 1.6 0.4
v 0.4 1.8 0.5
v 0.4 1.8 0.4
v 0.5 0.7 0.7
v 0.5 0.7 0.4
v 0.5 1 0.7
v 0.5 1 0.6
v 0.5 1.1 0.6
v 0.5 1.1 0.4
v 0.7 0.2 0.4
v 0.7 0.2 0.3
v 0.7 0.2 0.2
v 0.7 0.3 0.3
v 0.7 0.3 0.2
v 0.7 1.6 0.4
v 0.7 1.6 0.3
v 0.9 0.3 0.3
v 0.9 0.3 0.2
v 0.9 0.3 0.1
v 0.9 1.6 0.6
v 0.9 1.6 0.3
v 0.9 1.8 0.4
v 0.9 1.8 0.3
v 0.9 1.8 0.2
v 0.9 1.8 0.1
v 0.9 2 0.6
v 0.9 2 0.5
v 0.9 2.2 0.5
v 0.9 2.2 0.4
v -0.5 0.7 0.7
v -0.5 1 0.7
v -0.4 0.7 0.7
v -0.4 1 0.7
v -0.2 0.4 0.7
v -0.2 0.7 0.7
v -0.1 0.4 0.7
v -0.1 0.7 0.7
v 0.1 0.4 0.7
v 0.1 0.7 0.7
v 0.2 0.4 0.7
v 0.2 0.7 0.7
v 0.4 0.7 0.7
v 0.4 1 0.7
v 0.5 0.7 0.7
v 0.5 1 0.7
v -0.9 1.6 0.6
v -0.9 2 0.6
v -0.8 1.8 0.6
v -0.8 2 0.6
v -0.7 1.6 0.6
v -0.7 1.8 0.6
v -0.5 1 0.6
v -0.5 1.1 0.6
v -0.4 0.7 0.6
v -0.4 0.9 0.6
v -0.4 1 0.6
v -0.4 1.1 0.6
v -0.3 0.4 0.6
v -0.3 0.7 0.6
v -0.3 0.9 0.6
v -0.2 0.3 0.6
v -0.2 0.4 0.6
v -0.2 0.7 0.6
v -0.1 0.3 0.6
v -0.1 0.4 0.6
v 0.1 0.3 0.6
v 0.1 0.4 0.6
v 0.2 0.3 0.6
v 0.2 0.4 0.6
v 0.2 0.7 0.6
v 0.3 0.4 0.6
v 0.3 0.7 0.6
v 0.3 0.9 0.6
v 0.4 0.7 0.6
v 0.4 0.9 0.6
v 0.4 1 0.6
v 0.4 1.1 0.6
v 0.5 1 0.6
v 0.5 1.1 0.6
v 0.7 1.6 0.6
v 0.7 1.8 0.6
v 0.8 1.8 0.6
v 0.8 2 0.6
v 0.9 1.6 0.6
v 0.9 2 0.6
v -0.9 2 0.5
v -0.9 2.2 0.5
v -0.8 1.8 0.5
v -0.8 2 0.5
v -0.8 2.2 0.5
v -0.7 1.6 0.5
v -0.7 1.8 0.5
v -0.7 2 0.5
v -0.6 1.6 0.5
v -0.6 1.8 0.5
v -0.4 0.1 0.5
v -0.4 0.6 0.5
v -0.4 0.7 0.5
v -0.4 0.9 0.5
v -0.4 1.1 0.5
v -0.4 1.4 0.5
v -0.4 1.5 0.5
v -0.4 1.6 0.5
v -0.4 1.8 0.5
v -0.3 0.4 0.5
v -0.3 0.6 0.5
v -0.3 0.7 0.5
v -0.3 0.9 0.5
v -0.3 1.3 0.5
v -0.3 1.4 0.5
v -0.3 1.5 0.5
v -0.3 1.6 0.5
v -0.3 1.7 0.5
v -0.2 0.3 0.5
v -0.2 0.4 0.5
v -0.2 0.9 0.5
v -0.2 1 0.5
v -0.2 1.1 0.5
v -0.2 1.2 0.5
v -0.2 1.3 0.5
v -0.2 1.4 0.5
v -0.2 1.5 0.5
v -0.2 1.7 0.5
v -0.2 1.8 0.5
v -0.1 0 0.5
v -0.1 0.1 0.5
v -0.1 0.3 0.5
v -0.1 0.6 0.5
v -0.1 0.7 0.5
v -0.1 1.2 0.5
v -0.1 1.5 0.5
v -0.1 1.6 0.5
v -0.1 1.8 0.5
v 0.1 0 0.5
v 0.1 0.1 0.5
v 0.1 0.3 0.5
v 0.1 0.6 0.5
v 0.1 0.7 0.5
v 0.1 1.2 0.5
v 0.1 1.5 0.5
v 0.1 1.6 0.5
v 0.1 1.8 0.5
v 0.2 0.3 0.5
v 0.2 0.4 0.5
v 0.2 0.9 0.5
v 0.2 1 0.5
v 0.2 1.1 0.5
v 0.2 1.2 0.5
v 0.2 1.3 0.5
v 0.2 1.4 0.5
v 0.2 1.5 0.5
v 0.2 1.7 0.5
v 0.2 1.8 0.5
v 0.3 0.4 0.5
v 0.3 0.6 0.5
v 0.3 0.7 0.5
v 0.3 0.9 0.5
v 0.3 1.3 0.5
v 0.3 1.4 0.5
v 0.3 1.5 0.5
v 0.3 1.6 0.5
v 0.3 1.7 0.5
v 0.4 0.1 0.5
v 0.4 0.6 0.5
v 0.4 0.7 0.5
v 0.4 0.9 0.5
v 0.4 1.1 0.5
v 0.4 1.4 0.5
v 0.4 1.5 0.5
v 0.4 1.6 0.5
v 0.4 1.8 0.5
v 0.6 1.6 0.5
v 0.6 1.8 0.5
v 0.7 1.6 0.5
v 0.7 1.8 0.5
v 0.7 2 0.5
v 0.8 1.8 0.5
v 0.8 2 0.5
v 0.8 2.2 0.5
v 0.9 2 0.5
v 0.9 2.2 0.5
v -0.7 0.2 0.4
v -0.7 1.6 0.4
v -0.6 0.4 0.4
v -0.6 0.6 0.4
v -0.6 1.2 0.4
v -0.6 1.3 0.4
v -0.6 1.6 0.4
v -0.6 1.8 0.4
v -0.5 0.4 0.4
v -0.5 0.5 0.4
v -0.5 0.6 0.4
v -0.5 0.7 0.4
v -0.5 1.1 0.4
v -0.5 1.2 0.4
v -0.4 0.2 0.4
v -0.4 0.5 0.4
v -0.4 0.6 0.4
v -0.4 0.7 0.4
v -0.4 1.1 0.4
v -0.4 1.3 0.4
v -0.4 1.4 0.4
v -0.4 1.5 0.4
v -0.4 1.6 0.4
v -0.4 1.8 0.4
v 0.4 0.2 0.4
v 0.4 0.5 0.4
v 0.4 0.6 0.4
v 0.4 0.7 0.4
v 0.4 1.1 0.4
v 0.4 1.3 0.4
v 0.4 1.4 0.4
v 0.4 1.5 0.4
v 0.4 1.6 0.4
v 0.4 1.8 0.4
v 0.5 0.4 0.4
v 0.5 0.5 0.4
v 0.5 0.6 0.4
v 0.5 0.7 0.4
v 0.5 1.1 0.4
v 0.5 1.2 0.4
v 0.6 0.4 0.4
v 0.6 0.6 0.4
v 0.6 1.2 0.4
v 0.6 1.3 0.4
v 0.6 1.6 0.4
v 0.6 1.8 0.4
v 0.7 0.2 0.4
v 0.7 1.6 0.4
v -0.9 0.3 0.3
v -0.9 1.6 0.3
v -0.7 0.3 0.3
v -0.7 1.6 0.3
v 0.7 0.3 0.3
v 0.7 1.6 0.3
v 0.9 0.3 0.3
v 0.9 1.6 0.3
v -0.9 1.8 0.4
v -0.9 2.2 0.4
v -0.8 2 0.4
v -0.8 2.2 0.4
v -0.7 1.8 0.4
v -0.7 2 0.4
v 0.7 1.8 0.4
v 0.7 2 0.4
v 0.8 2 0.4
v 0.8 2.2 0.4
v 0.9 1.8 0.4
v 0.9 2.2 0.4
v -0.4 0.1 0.3
v -0.4 0.2 0.3
v -0.4 1.8 0.3
v -0.1 0 0.3
v -0.1 0.1 0.3
v 0.1 0 0.3
v 0.1 0.1 0.3
v 0.4 0.1 0.3
v 0.4 0.2 0.3
v 0.4 1.8 0.3
v -0.7 0.2 0.2
v -0.7 0.3 0.2
v -0.7 1.8 0.2
v -0.4 0.2 0.2
v -0.4 1.8 0.2
v 0.4 0.2 0.2
v 0.4 1.8 0.2
v 0.7 0.2 0.2
v 0.7 0.3 0.2
v 0.7 1.8 0.2
v -0.9 0.3 0.1
v -0.9 1.8 0.1
v -0.7 0.3 0.1
v -0.7 1.8 0.1
v 0.7 0.3 0.1
v 0.7 1.8 0.1
v 0.9 0.3 0.1
v 0.9 1.8 0.1
v -0.1 0 0.5
v 0.1 0 0.5
v -0.1 0 0.4
v 0.1 0 0.4
v -0.1 0 0.3
v 0.1 0 0.3
v -0.4 0.1 0.5
v -0.1 0.1 0.5
v 0.1 0.1 0.5
v 0.4 0.1 0.5
v -0.4 0.1 0.4
v -0.1 0.1 0.4
v 0.1 0.1 0.4
v 0.4 0.1 0.4
v -0.4 0.1 0.3
v -0.1 0.1 0.3
v 0.1 0.1 0.3
v 0.4 0.1 0.3
v -0.7 0.2 0.4
v -0.4 0.2 0.4
v 0.4 0.2 0.4
v 0.7 0.2 0.4
v -0.7 0.2 0.3
v -0.4 0.2 0.3
v 0.4 0.2 0.3
v 0.7 0.2 0.3
v -0.7 0.2 0.2
v -0.4 0.2 0.2
v 0.4 0.2 0.2
v 0.7 0.2 0.2
v -0.2 0.3 0.6
v -0.1 0.3 0.6
v 0.1 0.3 0.6
v 0.2 0.3 0.6
v -0.2 0.3 0.5
v -0.1 0.3 0.5
v 0.1 0.3 0.5
v 0.2 0.3 0.5
v -0.9 0.3 0.3
v -0.7 0.3 0.3
v 0.7 0.3 0.3
v 0.9 0.3 0.3
v -0.9 0.3 0.2
v -0.7 0.3 0.2
v 0.7 0.3 0.2
v 0.9 0.3 0.2
v -0.9 0.3 0.1
v -0.7 0.3 0.1
v 0.7 0.3 0.1
v 0.9 0.3 0.1
v -0.2 0.4 0.7
v -0.1 0.4 0.7
v 0.1 0.4 0.7
v 0.2 0.4 0.7
v -0.3 0.4 0.6
v -0.2 0.4 0.6
v -0.1 0.4 0.6
v 0.1 0.4 0.6
v 0.2 0.4 0.6
v 0.3 0.4 0.6
v -0.3 0.4 0.5
v -0.2 0.4 0.5
v 0.2 0.4 0.5
v 0.3 0.4 0.5
v -0.5 0.7 0.7
v -0.4 0.7 0.7
v 0.4 0.7 0.7
v 0.5 0.7 0.7
v -0.4 0.7 0.6
v -0.3 0.7 0.6
v 0.3 0.7 0.6
v 0.4 0.7 0.6
v -0.4 0.7 0.5
v -0.3 0.7 0.5
v 0.3 0.7 0.5
v 0.4 0.7 0.5
v -0.5 0.7 0.4
v -0.4 0.7 0.4
v 0.4 0.7 0.4
v 0.5 0.7 0.4
v -0.9 1.6 0.6
v -0.7 1.6 0.6
v 0.7 1.6 0.6
v 0.9 1.6 0.6
v -0.7 1.6 0.5
v -0.6 1.6 0.5
v 0.6 1.6 0.5
v 0.7 1.6 0.5
v -0.7 1.6 0.4
v -0.6 1.6 0.4
v 0.6 1.6 0.4
v 0.7 1.6 0.4
v -0.9 1.6 0.3
v -0.7 1.6 0.3
v 0.7 1.6 0.3
v 0.9 1.6 0.3
v -0.2 0.7 0.7
v -0.1 0.7 0.7
v 0.1 0.7 0.7
v 0.2 0.7 0.7
v -0.3 0.7 0.6
v -0.2 0.7 0.6
v 0.2 0.7 0.6
v 0.3 0.7 0.6
v -0.3 0.7 0.5
v -0.1 0.7 0.5
v 0.1 0.7 0.5
v 0.3 0.7 0.5
v -0.4 0.9 0.6
v -0.3 0.9 0.6
v 0.3 0.9 0.6
v 0.4 0.9 0.6
v -0.4 0.9 0.5
v -0.3 0.9 0.5
v 0.3 0.9 0.5
v 0.4 0.9 0.5
v -0.5 1 0.7
v -0.4 1 0.7
v 0.4 1 0.7
v 0.5 1 0.7
v -0.5 1 0.6
v -0.4 1 0.6
v 0.4 1 0.6
v 0.5 1 0.6
v -0.5 1.1 0.6
v -0.4 1.1 0.6
v 0.4 1.1 0.6
v 0.5 1.1 0.6
v -0.4 1.1 0.5
v 0.4 1.1 0.5
v -0.5 1.1 0.4
v -0.4 1.1 0.4
v 0.4 1.1 0.4
v 0.5 1.1 0.4
v -0.8 1.8 0.6
v -0.7 1.8 0.6
v 0.7 1.8 0.6
v 0.8 1.8 0.6
v -0.8 1.8 0.5
v -0.7 1.8 0.5
v -0.6 1.8 0.5
v -0.4 1.8 0.5
v -0.2 1.8 0.5
v -0.1 1.8 0.5
v 0.1 1.8 0.5
v 0.2 1.8 0.5
v 0.4 1.8 0.5
v 0.6 1.8 0.5
v 0.7 1.8 0.5
v 0.8 1.8 0.5
v -0.9 1.8 0.4
v -0.7 1.8 0.4
v -0.6 1.8 0.4
v -0.4 1.8 0.4
v -0.2 1.8 0.4
v -0.1 1.8 0.4
v 0.1 1.8 0.4
v 0.2 1.8 0.4
v 0.4 1.8 0.4
v 0.6 1.8 0.4
v 0.7 1.8 0.4
v 0.9 1.8 0.4
v -0.9 1.8 0.3
v -0.7 1.8 0.3
v -0.4 1.8 0.3
v 0.4 1.8 0.3
v 0.7 1.8 0.3
v 0.9 1.8 0.3
v -0.9 1.8 0.2
v -0.7 1.8 0.2
v -0.4 1.8 0.2
v 0.4 1.8 0.2
v 0.7 1.8 0.2
v 0.9 1.8 0.2
v -0.9 1.8 0.1
v -0.7 1.8 0.1
v 0.7 1.8 0.1
v 0.9 1.8 0.1
v -0.9 2 0.6
v -0.8 2 0.6
v 0.8 2 0.6
v 0.9 2 0.6
v -0.9 2 0.5
v -0.8 2 0.5
v -0.7 2 0.5
v 0.7 2 0.5
v 0.8 2 0.5
v 0.9 2 0.5
v -0.8 2 0.4
v -0.7 2 0.4
v 0.7 2 0.4
v 0.8 2 0.4
v -0.9 2.2 0.5
v -0.8 2.2 0.5
v 0.8 2.2 0.5
v 0.9 2.2 0.5
v -0.9 2.2 0.4
v -0.8 2.2 0.4
v 0.8 2.2 0.4
v 0.9 2.2 0.4

# faces
f 5/4/1 2/4/1 1/4/1
f 6/1/1 5/1/1 4/1/1
f 7/4/1 2/4/1 5/4/1
f 7/1/1 5/1/1 6/1/1
f 8/2/1 3/2/1 2/2/1
f 8/4/1 2/4/1 7/4/1
f 9/2/1 3/2/1 8/2/1
f 10/1/1 6/1/1 4/1/1
f 11/1/1 6/1/1 10/1/1
f 12/1/1 6/1/1 11/1/1
f 13/1/1 6/1/1 12/1/1
f 17/4/1 15/4/1 14/4/1
f 17/2/1 16/2/1 15/2/1
f 18/2/1 16/2/1 17/2/1
f 19/4/1 17/4/1 14/4/1
f 20/4/1 17/4/1 19/4/1
f 23/1/1 22/1/1 21/1/1
f 24/1/1 22/1/1 23/1/1
f 25/1/1 22/1/1 24/1/1
f 26/1/1 22/1/1 25/1/1
f 30/4/1 28/4/1 27/4/1
f 30/2/1 29/2/1 28/2/1
f 31/2/1 29/2/1 30/2/1
f 32/4/1 30/4/1 27/4/1
f 33/4/1 32/4/1 27/4/1
f 34/4/1 32/4/1 33/4/1
f 35/6/1 34/6/1 33/6/1
f 36/6/1 34/6/1 35/6/1
f 39/6/1 38/6/1 37/6/1
f 40/6/1 39/6/1 37/6/1
f 41/6/1 39/6/1 40/6/1
f 42/4/1 41/4/1 40/4/1
f 43/4/1 41/4/1 42/4/1
f 44/6/1 43/6/1 42/6/1
f 45/6/1 43/6/1 44/6/1
f 46/4/1 45/4/1 44/4/1
f 47/4/1 45/4/1 46/4/1
f 50/1/1 49/1/1 48/1/1
f 51/1/1 50/1/1 48/1/1
f 52/1/1 50/1/1 51/1/1
f 56/1/1 54/1/1 53/1/1
f 57/1/1 54/1/1 56/1/1
f 58/1/1 56/1/1 55/1/1
f 59/1/1 56/1/1 58/1/1
f 63/4/1 61/4/1 60/4/1
f 64/2/1 62/2/1 61/2/1
f 64/4/1 61/4/1 63/4/1
f 65/2/1 62/2/1 64/2/1
f 69/1/1 67/1/1 66/1/1
f 70/1/1 67/1/1 69/1/1
f 70/1/1 69/1/1 68/1/1
f 71/1/1 70/1/1 68/1/1
f 72/1/1 70/1/1 71/1/1
f 75/1/1 74/1/1 73/1/1
f 76/1/1 74/1/1 75/1/1
f 81/1/1 80/1/1 79/1/1
f 83/1/1 81/1/1 79/1/1
f 83/1/1 82/1/1 81/1/1
f 84/1/1 82/1/1 83/1/1
f 85/1/1 82/1/1 84/1/1
f 86/1/1 82/1/1 85/1/1
f 87/2/1 78/2/1 77/2/1
f 88/2/1 78/2/1 87/2/1
f 91/1/1 90/1/1 89/1/1
f 92/1/1 90/1/1 91/1/1
f 97/1/1 96/1/1 95/1/1
f 98/1/1 96/1/1 97/1/1
f 100/2/1 94/2/1 93/2/1
f 101/2/1 94/2/1 100/2/1
f 102/1/1 99/1/1 98/1/1
f 103/1/1 99/1/1 102/1/1
f 106/1/1 105/1/1 104/1/1
f 107/1/1 105/1/1 106/1/1
f 109/1/1 108/1/1 107/1/1
f 110/1/1 108/1/1 109/1/1
f 111/1/2 112/1/2 113/1/2
f 113/1/2 112/1/2 114/1/2
f 114/1/2 115/1/2 116/1/2
f 116/1/2 115/1/2 117/1/2
f 120/1/2 121/1/2 122/1/2
f 122/1/2 121/1/2 123/1/2
f 118/2/2 119/2/2 125/2/2
f 125/2/2 119/2/2 126/2/2
f 123/1/2 124/1/2 127/1/2
f 127/1/2 124/1/2 128/1/2
f 129/1/2 130/1/2 131/1/2
f 131/1/2 130/1/2 132/1/2
f 135/1/2 136/1/2 137/1/2
f 135/1/2 137/1/2 139/1/2
f 137/1/2 138/1/2 139/1/2
f 139/1/2 138/1/2 140/1/2
f 140/1/2 138/1/2 141/1/2
f 141/1/2 138/1/2 142/1/2
f 133/2/2 134/2/2 143/2/2
f 143/2/2 134/2/2 144/2/2
f 145/1/2 146/1/2 147/1/2
f 147/1/2 146/1/2 148/1/2
f 149/1/2 150/1/2 152/1/2
f 152/1/2 150/1/2 153/1/2
f 151/1/2 152/1/2 153/1/2
f 151/1/2 153/1/2 154/1/2
f 154/1/2 153/1/2 155/1/2
f 156/4/2 157/4/2 159/4/2
f 157/2/2 158/2/2 160/2/2
f 159/4/2 157/4/2 160/4/2
f 160/2/2 158/2/2 161/2/2
f 162/1/2 163/1/2 165/1/2
f 165/1/2 163/1/2 166/1/2
f 164/1/2 165/1/2 167/1/2
f 167/1/2 165/1/2 168/1/2
f 169/1/2 170/1/2 171/1/2
f 169/1/2 171/1/2 172/1/2
f 172/1/2 171/1/2 173/1/2
f 174/4/2 175/4/2 177/4/2
f 175/2/2 176/2/2 177/2/2
f 177/2/2 176/2/2 178/2/2
f 174/4/2 177/4/2 179/4/2
f 174/4/2 179/4/2 180/4/2
f 180/4/2 179/4/2 181/4/2
f 180/6/2 181/6/2 182/6/2
f 182/6/2 181/6/2 183/6/2
f 184/6/2 185/6/2 186/6/2
f 184/6/2 186/6/2 187/6/2
f 187/6/2 186/6/2 188/6/2
f 187/4/2 188/4/2 189/4/2
f 189/4/2 188/4/2 190/4/2
f 189/6/2 190/6/2 191/6/2
f 191/6/2 190/6/2 192/6/2
f 191/4/2 192/4/2 193/4/2
f 193/4/2 192/4/2 194/4/2
f 195/1/2 196/1/2 197/1/2
f 197/1/2 196/1/2 198/1/2
f 198/1/2 196/1/2 199/1/2
f 199/1/2 196/1/2 200/1/2
f 201/4/2 202/4/2 204/4/2
f 202/2/2 203/2/2 204/2/2
f 204/2/2 203/2/2 205/2/2
f 201/4/2 204/4/2 206/4/2
f 206/4/2 204/4/2 207/4/2
f 208/4/2 209/4/2 212/4/2
f 211/1/2 212/1/2 213/1/2
f 212/4/2 209/4/2 214/4/2
f 213/1/2 212/1/2 214/1/2
f 209/2/2 210/2/2 215/2/2
f 214/4/2 209/4/2 215/4/2
f 215/2/2 210/2/2 216/2/2
f 211/1/2 213/1/2 217/1/2
f 217/1/2 213/1/2 218/1/2
f 218/1/2 213/1/2 219/1/2
f 219/1/2 213/1/2 220/1/2
f 223/1/3 222/1/3 221/1/3
f 224/1/3 222/1/3 223/1/3
f 227/1/3 226/1/3 225/1/3
f 228/1/3 226/1/3 227/1/3
f 231/1/3 230/1/3 229/1/3
f 232/1/3 230/1/3 231/1/3
f 235/1/3 234/1/3 233/1/3
f 236/1/3 234/1/3 235/1/3
f 239/1/3 238/1/3 237/1/3
f 240/1/3 238/1/3 239/1/3
f 241/1/3 239/1/3 237/1/3
f 242/1/3 239/1/3 241/1/3
f 247/1/3 244/1/3 243/1/3
f 248/1/3 244/1/3 247/1/3
f 250/1/3 246/1/3 245/1/3
f 251/1/3 246/1/3 250/1/3
f 253/1/3 250/1/3 249/1/3
f 254/1/3 250/1/3 253/1/3
f 255/1/3 253/1/3 252/1/3
f 256/1/3 253/1/3 255/1/3
f 259/1/3 258/1/3 257/1/3
f 260/1/3 258/1/3 259/1/3
f 262/1/3 261/1/3 260/1/3
f 263/1/3 261/1/3 262/1/3
f 265/1/3 264/1/3 263/1/3
f 266/1/3 264/1/3 265/1/3
f 269/1/3 268/1/3 267/1/3
f 270/1/3 268/1/3 269/1/3
f 273/1/3 272/1/3 271/1/3
f 275/1/3 273/1/3 271/1/3
f 275/1/3 274/1/3 273/1/3
f 276/1/3 274/1/3 275/1/3
f 280/1/3 278/1/3 277/1/3
f 281/1/3 278/1/3 280/1/3
f 283/1/3 280/1/3 279/1/3
f 284/1/3 280/1/3 283/1/3
f 285/1/3 283/1/3 282/1/3
f 286/1/3 283/1/3 285/1/3
f 296/4/3 288/4/3 287/4/3
f 297/6/3 289/6/3 288/6/3
f 297/4/3 288/4/3 296/4/3
f 298/6/3 289/6/3 297/6/3
f 299/4/3 291/4/3 290/4/3
f 300/6/3 292/6/3 291/6/3
f 301/4/3 293/4/3 292/4/3
f 301/6/3 292/6/3 300/6/3
f 302/6/3 294/6/3 293/6/3
f 302/4/3 293/4/3 301/4/3
f 303/4/3 295/4/3 294/4/3
f 303/6/3 294/6/3 302/6/3
f 304/4/3 295/4/3 303/4/3
f 305/4/3 296/4/3 287/4/3
f 306/4/3 296/4/3 305/4/3
f 307/6/3 299/6/3 298/6/3
f 307/4/3 291/4/3 299/4/3
f 308/4/3 291/4/3 307/4/3
f 309/6/3 300/6/3 291/6/3
f 309/4/3 291/4/3 308/4/3
f 310/6/3 300/6/3 309/6/3
f 311/3/3 301/3/3 300/3/3
f 311/6/3 300/6/3 310/6/3
f 312/4/3 302/4/3 301/4/3
f 312/3/3 301/3/3 311/3/3
f 312/4/3 303/4/3 302/4/3
f 313/4/3 303/4/3 312/4/3
f 314/4/3 295/4/3 304/4/3
f 314/6/3 304/6/3 303/6/3
f 315/4/3 295/4/3 314/4/3
f 317/4/3 305/4/3 287/4/3
f 318/4/3 305/4/3 317/4/3
f 320/6/3 308/6/3 307/6/3
f 320/6/3 307/6/3 298/6/3
f 321/6/3 311/6/3 310/6/3
f 321/6/3 313/6/3 312/6/3
f 321/4/3 310/4/3 309/4/3
f 321/4/3 309/4/3 308/4/3
f 321/6/3 312/6/3 311/6/3
f 322/4/3 303/4/3 313/4/3
f 322/6/3 313/6/3 321/6/3
f 323/6/3 315/6/3 314/6/3
f 323/4/3 303/4/3 322/4/3
f 323/6/3 314/6/3 303/6/3
f 324/6/3 315/6/3 323/6/3
f 325/4/3 319/4/3 318/4/3
f 325/4/3 317/4/3 316/4/3
f 325/4/3 318/4/3 317/4/3
f 326/4/3 319/4/3 325/4/3
f 327/4/3 319/4/3 326/4/3
f 328/6/3 320/6/3 319/6/3
f 328/4/3 319/4/3 327/4/3
f 329/6/3 308/6/3 320/6/3
f 329/6/3 320/6/3 328/6/3
f 330/4/3 321/4/3 308/4/3
f 330/4/3 324/4/3 323/4/3
f 330/4/3 322/4/3 321/4/3
f 330/4/3 323/4/3 322/4/3
f 331/4/3 324/4/3 330/4/3
f 332/4/3 324/4/3 331/4/3
f 333/4/3 324/4/3 332/4/3
f 334/4/3 327/4/3 326/4/3
f 336/6/3 308/6/3 329/6/3
f 337/4/3 330/4/3 308/4/3
f 337/6/3 308/6/3 336/6/3
f 338/4/3 330/4/3 337/4/3
f 339/6/3 331/6/3 330/6/3
f 339/4/3 330/4/3 338/4/3
f 340/6/3 331/6/3 339/6/3
f 341/6/3 331/6/3 340/6/3
f 342/4/3 332/4/3 331/4/3
f 342/6/3 331/6/3 341/6/3
f 343/6/3 333/6/3 332/6/3
f 344/6/3 333/6/3 343/6/3
f 345/4/3 335/4/3 334/4/3
f 347/6/3 336/6/3 329/6/3
f 348/4/3 338/4/3 337/4/3
f 348/4/3 337/4/3 336/4/3
f 348/6/3 336/6/3 347/6/3
f 349/3/3 341/3/3 340/3/3
f 349/6/3 339/6/3 338/6/3
f 349/6/3 340/6/3 339/6/3
f 350/4/3 342/4/3 341/4/3
f 350/3/3 341/3/3 349/3/3
f 351/4/3 332/4/3 342/4/3
f 351/4/3 342/4/3 350/4/3
f 352/6/3 343/6/3 332/6/3
f 352/4/3 332/4/3 351/4/3
f 353/4/3 344/4/3 343/4/3
f 353/6/3 343/6/3 352/6/3
f 354/4/3 346/4/3 345/4/3
f 354/4/3 334/4/3 326/4/3
f 354/4/3 345/4/3 334/4/3
f 355/6/3 347/6/3 346/6/3
f 355/4/3 346/4/3 354/4/3
f 356/6/3 347/6/3 355/6/3
f 357/4/3 338/4/3 348/4/3
f 358/6/3 350/6/3 349/6/3
f 358/4/3 338/4/3 357/4/3
f 358/6/3 349/6/3 338/6/3
f 359/4/3 351/4/3 350/4/3
f 359/6/3 350/6/3 358/6/3
f 360/6/3 352/6/3 351/6/3
f 360/4/3 351/4/3 359/4/3
f 361/4/3 353/4/3 352/4/3
f 361/6/3 352/6/3 360/6/3
f 362/4/3 344/4/3 353/4/3
f 362/4/3 353/4/3 361/4/3
f 365/1/3 364/1/3 363/1/3
f 366/1/3 364/1/3 365/1/3
f 368/1/3 367/1/3 366/1/3
f 369/1/3 367/1/3 368/1/3
f 371/1/3 370/1/3 369/1/3
f 372/1/3 370/1/3 371/1/3
f 375/4/3 374/4/3 373/4/3
f 376/4/3 374/4/3 375/4/3
f 377/4/3 374/4/3 376/4/3
f 378/4/3 374/4/3 377/4/3
f 379/4/3 374/4/3 378/4/3
f 381/4/3 375/4/3 373/4/3
f 381/6/3 376/6/3 375/6/3
f 382/6/3 376/6/3 381/6/3
f 383/4/3 377/4/3 376/4/3
f 383/6/3 376/6/3 382/6/3
f 384/4/3 377/4/3 383/4/3
f 385/4/3 377/4/3 384/4/3
f 386/6/3 378/6/3 377/6/3
f 386/4/3 377/4/3 385/4/3
f 387/4/3 382/4/3 381/4/3
f 387/4/3 381/4/3 373/4/3
f 388/6/3 384/6/3 383/6/3
f 388/4/3 382/4/3 387/4/3
f 388/6/3 383/6/3 382/6/3
f 389/6/3 384/6/3 388/6/3
f 390/6/3 384/6/3 389/6/3
f 391/6/3 386/6/3 385/6/3
f 392/4/3 380/4/3 379/4/3
f 392/6/3 386/6/3 391/6/3
f 392/4/3 379/4/3 378/4/3
f 392/6/3 378/6/3 386/6/3
f 393/4/3 380/4/3 392/4/3
f 394/4/3 380/4/3 393/4/3
f 395/4/3 380/4/3 394/4/3
f 396/4/3 380/4/3 395/4/3
f 407/4/3 398/4/3 397/4/3
f 408/6/3 399/6/3 398/6/3
f 408/4/3 398/4/3 407/4/3
f 408/6/3 400/6/3 399/6/3
f 409/6/3 400/6/3 408/6/3
f 410/6/3 400/6/3 409/6/3
f 411/6/3 402/6/3 401/6/3
f 412/6/3 402/6/3 411/6/3
f 413/4/3 407/4/3 397/4/3
f 413/6/3 408/6/3 407/6/3
f 413/6/3 409/6/3 408/6/3
f 414/4/3 410/4/3 409/4/3
f 414/6/3 409/6/3 413/6/3
f 414/4/3 412/4/3 411/4/3
f 414/4/3 411/4/3 410/4/3
f 415/6/3 402/6/3 412/6/3
f 415/4/3 412/4/3 414/4/3
f 416/4/3 406/4/3 405/4/3
f 416/6/3 402/6/3 415/6/3
f 416/4/3 405/4/3 404/4/3
f 416/4/3 403/4/3 402/4/3
f 416/4/3 404/4/3 403/4/3
f 417/4/3 406/4/3 416/4/3
f 418/4/3 406/4/3 417/4/3
f 419/4/3 415/4/3 414/4/3
f 419/4/3 414/4/3 413/4/3
f 419/4/3 417/4/3 416/4/3
f 419/4/3 416/4/3 415/4/3
f 419/4/3 413/4/3 397/4/3
f 420/4/3 417/4/3 419/4/3
f 423/4/3 422/4/3 421/4/3
f 424/4/3 422/4/3 423/4/3
f 427/4/3 426/4/3 425/4/3
f 428/4/3 426/4/3 427/4/3
f 429/1/4 430/1/4 431/1/4
f 431/1/4 430/1/4 432/1/4
f 429/1/4 431/1/4 433/1/4
f 433/1/4 431/1/4 434/1/4
f 435/1/4 436/1/4 437/1/4
f 435/1/4 437/1/4 439/1/4
f 437/1/4 438/1/4 439/1/4
f 439/1/4 438/1/4 440/1/4
f 441/2/4 442/2/4 445/2/4
f 442/2/4 443/2/4 445/2/4
f 444/2/4 445/2/4 446/2/4
f 445/2/4 443/2/4 447/2/4
f 446/2/4 445/2/4 447/2/4
f 447/2/4 443/2/4 448/2/4
f 448/2/4 443/2/4 449/2/4
f 449/2/4 443/2/4 450/2/4
f 451/2/4 452/2/4 454/2/4
f 452/2/4 453/2/4 454/2/4
f 454/2/4 453/2/4 455/2/4
f 456/2/4 457/2/4 458/2/4
f 458/2/4 457/2/4 459/2/4
f 459/2/4 457/2/4 460/2/4
f 461/2/4 462/2/4 463/2/4
f 463/2/4 462/2/4 464/2/4
f 465/2/4 466/2/4 467/2/4
f 467/2/4 466/2/4 468/2/4
f 471/4/5 470/4/5 469/4/5
f 472/4/5 470/4/5 471/4/5
f 473/2/5 472/2/5 471/2/5
f 474/2/5 472/2/5 473/2/5
f 479/4/5 476/4/5 475/4/5
f 480/4/5 476/4/5 479/4/5
f 481/4/5 478/4/5 477/4/5
f 482/4/5 478/4/5 481/4/5
f 483/2/5 480/2/5 479/2/5
f 484/2/5 480/2/5 483/2/5
f 485/2/5 482/2/5 481/2/5
f 486/2/5 482/2/5 485/2/5
f 491/4/5 488/4/5 487/4/5
f 492/4/5 488/4/5 491/4/5
f 493/4/5 490/4/5 489/4/5
f 494/4/5 490/4/5 493/4/5
f 495/2/5 492/2/5 491/2/5
f 496/2/5 492/2/5 495/2/5
f 497/2/5 494/2/5 493/2/5
f 498/2/5 494/2/5 497/2/5
f 503/1/5 500/1/5 499/1/5
f 504/1/5 500/1/5 503/1/5
f 505/1/5 502/1/5 501/1/5
f 506/1/5 502/1/5 505/1/5
f 511/4/5 508/4/5 507/4/5
f 512/4/5 508/4/5 511/4/5
f 513/4/5 510/4/5 509/4/5
f 514/4/5 510/4/5 513/4/5
f 515/2/5 512/2/5 511/2/5
f 516/2/5 512/2/5 515/2/5
f 517/2/5 514/2/5 513/2/5
f 518/2/5 514/2/5 517/2/5
f 524/1/5 520/1/5 519/1/5
f 525/1/5 520/1/5 524/1/5
f 526/1/5 522/1/5 521/1/5
f 527/1/5 522/1/5 526/1/5
f 529/1/5 524/1/5 523/1/5
f 530/1/5 524/1/5 529/1/5
f 531/1/5 528/1/5 527/1/5
f 532/1/5 528/1/5 531/1/5
f 537/1/5 534/1/5 533/1/5
f 540/1/5 536/1/5 535/1/5
f 541/1/5 538/1/5 537/1/5
f 541/1/5 537/1/5 533/1/5
f 542/1/5 538/1/5 541/1/5
f 543/1/5 540/1/5 539/1/5
f 544/1/5 536/1/5 540/1/5
f 544/1/5 540/1/5 543/1/5
f 545/1/5 541/1/5 533/1/5
f 546/1/5 541/1/5 545/1/5
f 547/1/5 536/1/5 544/1/5
f 548/1/5 536/1/5 547/1/5
f 553/1/5 550/1/5 549/1/5
f 556/1/5 552/1/5 551/1/5
f 557/1/5 554/1/5 553/1/5
f 557/1/5 553/1/5 549/1/5
f 558/1/5 554/1/5 557/1/5
f 559/1/5 556/1/5 555/1/5
f 560/1/5 552/1/5 556/1/5
f 560/1/5 556/1/5 559/1/5
f 561/1/5 557/1/5 549/1/5
f 562/1/5 557/1/5 561/1/5
f 563/1/5 552/1/5 560/1/5
f 564/1/5 552/1/5 563/1/5
f 565/1/6 566/1/6 570/1/6
f 567/1/6 568/1/6 571/1/6
f 569/1/6 570/1/6 573/1/6
f 570/1/6 566/1/6 574/1/6
f 573/1/6 570/1/6 574/1/6
f 571/1/6 572/1/6 575/1/6
f 567/1/6 571/1/6 575/1/6
f 575/1/6 572/1/6 576/1/6
f 577/1/6 578/1/6 581/1/6
f 581/1/6 578/1/6 582/1/6
f 579/1/6 580/1/6 583/1/6
f 583/1/6 580/1/6 584/1/6
f 585/1/6 586/1/6 589/1/6
f 589/1/6 586/1/6 590/1/6
f 587/1/6 588/1/6 591/1/6
f 591/1/6 588/1/6 592/1/6
f 593/1/6 594/1/6 597/1/6
f 595/1/6 596/1/6 598/1/6
f 593/1/6 597/1/6 599/1/6
f 599/1/6 597/1/6 600/1/6
f 598/1/6 596/1/6 601/1/6
f 601/1/6 596/1/6 602/1/6
f 603/1/6 604/1/6 607/1/6
f 607/1/6 604/1/6 608/1/6
f 605/1/6 606/1/6 617/1/6
f 617/1/6 606/1/6 618/1/6
f 608/1/6 609/1/6 620/1/6
f 620/1/6 609/1/6 621/1/6
f 610/4/6 611/4/6 622/4/6
f 611/6/6 612/6/6 623/6/6
f 622/4/6 611/4/6 623/4/6
f 612/4/6 613/4/6 624/4/6
f 623/6/6 612/6/6 624/6/6
f 613/6/6 614/6/6 625/6/6
f 624/4/6 613/4/6 625/4/6
f 614/4/6 615/4/6 626/4/6
f 625/6/6 614/6/6 626/6/6
f 626/4/6 615/4/6 627/4/6
f 616/1/6 617/1/6 628/1/6
f 628/1/6 617/1/6 629/1/6
f 619/1/6 620/1/6 631/1/6
f 620/4/6 621/4/6 632/4/6
f 631/1/6 620/1/6 632/1/6
f 621/4/6 622/4/6 632/4/6
f 624/2/6 625/2/6 633/2/6
f 632/4/6 622/4/6 633/4/6
f 626/2/6 627/2/6 633/2/6
f 622/2/6 623/2/6 633/2/6
f 625/2/6 626/2/6 633/2/6
f 623/2/6 624/2/6 633/2/6
f 628/4/6 629/4/6 634/4/6
f 633/2/6 627/2/6 634/2/6
f 627/4/6 628/4/6 634/4/6
f 629/1/6 630/1/6 635/1/6
f 634/4/6 629/4/6 635/4/6
f 635/1/6 630/1/6 636/1/6
f 631/4/6 632/4/6 637/4/6
f 632/2/6 633/2/6 638/2/6
f 637/4/6 632/4/6 638/4/6
f 638/2/6 633/2/6 639/2/6
f 634/2/6 635/2/6 640/2/6
f 635/4/6 636/4/6 641/4/6
f 640/2/6 635/2/6 641/2/6
f 641/4/6 636/4/6 642/4/6
f 637/2/6 638/2/6 643/2/6
f 643/2/6 638/2/6 644/2/6
f 641/2/6 642/2/6 645/2/6
f 645/2/6 642/2/6 646/2/6
f 647/1/6 648/1/6 651/1/6
f 651/1/6 648/1/6 652/1/6
f 649/1/6 650/1/6 655/1/6
f 655/1/6 650/1/6 656/1/6
f 652/1/6 653/1/6 657/1/6
f 657/1/6 653/1/6 658/1/6
f 654/1/6 655/1/6 659/1/6
f 659/1/6 655/1/6 660/1/6
f 661/1/6 662/1/6 665/1/6
f 665/1/6 662/1/6 666/1/6
f 663/1/6 664/1/6 667/1/6
f 667/1/6 664/1/6 668/1/6
