# MagicaVoxel @ Ephtracy

# group
o 

# material
mtllib Oni Wind.mtl
usemtl palette

# normals
vn -1 0 0
vn 1 0 0
vn 0 0 1
vn 0 0 -1
vn 0 -1 0
vn 0 1 0

# texcoords
vt 0.0683594 0.5
vt 0.0957031 0.5
vt 0.400391 0.5
vt 0.853516 0.5
vt 0.880859 0.5
vt 0.896484 0.5
vt 0.994141 0.5

# verts
v -0.9 0.3 0.3
v -0.9 0.3 0.2
v -0.9 0.3 0.1
v -0.9 1.6 0.6
v -0.9 1.6 0.3
v -0.9 1.8 0.4
v -0.9 1.8 0.3
v -0.9 1.8 0.2
v -0.9 1.8 0.1
v -0.9 2 0.6
v -0.9 2 0.5
v -0.9 2.2 0.5
v -0.9 2.2 0.4
v -0.7 0.2 0.4
v -0.7 0.2 0.3
v -0.7 0.2 0.2
v -0.7 0.3 0.3
v -0.7 0.3 0.2
v -0.7 0.8 0.4
v -0.7 0.8 0.3
v -0.7 0.9 0.3
v -0.7 1 0.4
v -0.7 1 0.3
v -0.7 1.1 0.4
v -0.7 1.1 0.3
v -0.7 1.6 0.4
v -0.7 1.6 0.3
v -0.6 0.5 0.5
v -0.6 0.5 0.4
v -0.6 0.6 0.6
v -0.6 0.6 0.5
v -0.6 0.8 0.6
v -0.6 0.8 0.5
v -0.6 0.8 0.4
v -0.6 0.9 0.5
v -0.6 0.9 0.4
v -0.4 0.1 0.5
v -0.4 0.1 0.4
v -0.4 0.1 0.3
v -0.4 0.2 0.4
v -0.4 0.2 0.3
v -0.4 0.6 0.5
v -0.4 0.6 0.4
v -0.4 0.9 0.5
v -0.4 0.9 0.4
v -0.4 1.2 0.5
v -0.4 1.2 0.4
v -0.4 1.3 0.5
v -0.4 1.3 0.4
v -0.4 1.4 0.5
v -0.4 1.4 0.4
v -0.4 1.5 0.5
v -0.4 1.5 0.4
v -0.4 1.6 0.5
v -0.4 1.6 0.4
v -0.4 1.8 0.5
v -0.4 1.8 0.4
v -0.3 0.5 0.6
v -0.3 0.5 0.5
v -0.3 0.6 0.7
v -0.3 0.6 0.6
v -0.3 0.6 0.5
v -0.3 0.9 0.7
v -0.3 0.9 0.6
v -0.3 0.9 0.5
v -0.3 1 0.6
v -0.3 1 0.5
v -0.1 0 0.5
v -0.1 0 0.4
v -0.1 0 0.3
v -0.1 0.1 0.5
v -0.1 0.1 0.4
v -0.1 0.1 0.3
v 0.1 0.5 0.6
v 0.1 0.5 0.5
v 0.1 0.8 0.6
v 0.1 0.8 0.5
v 0.2 0.6 0.7
v 0.2 0.6 0.6
v 0.2 0.8 0.6
v 0.2 0.8 0.5
v 0.2 0.9 0.7
v 0.2 0.9 0.6
v 0.2 0.9 0.5
v 0.2 1 0.6
v 0.2 1 0.5
v 0.4 0.2 0.3
v 0.4 0.2 0.2
v 0.4 1.8 0.3
v 0.4 1.8 0.2
v 0.5 0.5 0.5
v 0.5 0.5 0.4
v 0.5 0.6 0.6
v 0.5 0.6 0.5
v 0.5 0.6 0.4
v 0.5 0.8 0.6
v 0.5 0.8 0.5
v 0.6 1.6 0.5
v 0.6 1.6 0.4
v 0.6 1.8 0.5
v 0.6 1.8 0.4
v 0.7 0.3 0.2
v 0.7 0.3 0.1
v 0.7 1.6 0.6
v 0.7 1.6 0.5
v 0.7 1.8 0.6
v 0.7 1.8 0.5
v 0.7 1.8 0.4
v 0.7 1.8 0.2
v 0.7 1.8 0.1
v 0.7 2 0.5
v 0.7 2 0.4
v 0.8 1.8 0.6
v 0.8 1.8 0.5
v 0.8 2 0.6
v 0.8 2 0.5
v 0.8 2 0.4
v 0.8 2.2 0.5
v 0.8 2.2 0.4
v -0.8 1.8 0.6
v -0.8 1.8 0.5
v -0.8 2 0.6
v -0.8 2 0.5
v -0.8 2 0.4
v -0.8 2.2 0.5
v -0.8 2.2 0.4
v -0.7 0.3 0.2
v -0.7 0.3 0.1
v -0.7 1.6 0.6
v -0.7 1.6 0.5
v -0.7 1.8 0.6
v -0.7 1.8 0.5
v -0.7 1.8 0.4
v -0.7 1.8 0.2
v -0.7 1.8 0.1
v -0.7 2 0.5
v -0.7 2 0.4
v -0.6 1.6 0.5
v -0.6 1.6 0.4
v -0.6 1.8 0.5
v -0.6 1.8 0.4
v -0.5 0.5 0.5
v -0.5 0.5 0.4
v -0.5 0.6 0.6
v -0.5 0.6 0.5
v -0.5 0.6 0.4
v -0.5 0.8 0.6
v -0.5 0.8 0.5
v -0.4 0.2 0.3
v -0.4 0.2 0.2
v -0.4 1.8 0.3
v -0.4 1.8 0.2
v -0.2 0.6 0.7
v -0.2 0.6 0.6
v -0.2 0.8 0.6
v -0.2 0.8 0.5
v -0.2 0.9 0.7
v -0.2 0.9 0.6
v -0.2 0.9 0.5
v -0.2 1 0.6
v -0.2 1 0.5
v -0.1 0.5 0.6
v -0.1 0.5 0.5
v -0.1 0.8 0.6
v -0.1 0.8 0.5
v 0.1 0 0.5
v 0.1 0 0.4
v 0.1 0 0.3
v 0.1 0.1 0.5
v 0.1 0.1 0.4
v 0.1 0.1 0.3
v 0.3 0.5 0.6
v 0.3 0.5 0.5
v 0.3 0.6 0.7
v 0.3 0.6 0.6
v 0.3 0.6 0.5
v 0.3 0.9 0.7
v 0.3 0.9 0.6
v 0.3 0.9 0.5
v 0.3 1 0.6
v 0.3 1 0.5
v 0.4 0.1 0.5
v 0.4 0.1 0.4
v 0.4 0.1 0.3
v 0.4 0.2 0.4
v 0.4 0.2 0.3
v 0.4 0.6 0.5
v 0.4 0.6 0.4
v 0.4 0.9 0.5
v 0.4 0.9 0.4
v 0.4 1.2 0.5
v 0.4 1.2 0.4
v 0.4 1.3 0.5
v 0.4 1.3 0.4
v 0.4 1.4 0.5
v 0.4 1.4 0.4
v 0.4 1.5 0.5
v 0.4 1.5 0.4
v 0.4 1.6 0.5
v 0.4 1.6 0.4
v 0.4 1.8 0.5
v 0.4 1.8 0.4
v 0.6 0.5 0.5
v 0.6 0.5 0.4
v 0.6 0.6 0.6
v 0.6 0.6 0.5
v 0.6 0.8 0.6
v 0.6 0.8 0.5
v 0.6 0.8 0.4
v 0.6 0.9 0.5
v 0.6 0.9 0.4
v 0.7 0.2 0.4
v 0.7 0.2 0.3
v 0.7 0.2 0.2
v 0.7 0.3 0.3
v 0.7 0.3 0.2
v 0.7 0.8 0.4
v 0.7 0.8 0.3
v 0.7 0.9 0.3
v 0.7 1 0.4
v 0.7 1 0.3
v 0.7 1.1 0.4
v 0.7 1.1 0.3
v 0.7 1.6 0.4
v 0.7 1.6 0.3
v 0.9 0.3 0.3
v 0.9 0.3 0.2
v 0.9 0.3 0.1
v 0.9 1.6 0.6
v 0.9 1.6 0.3
v 0.9 1.8 0.4
v 0.9 1.8 0.3
v 0.9 1.8 0.2
v 0.9 1.8 0.1
v 0.9 2 0.6
v 0.9 2 0.5
v 0.9 2.2 0.5
v 0.9 2.2 0.4
v -0.3 0.6 0.7
v -0.3 0.9 0.7
v -0.2 0.6 0.7
v -0.2 0.9 0.7
v 0.2 0.6 0.7
v 0.2 0.9 0.7
v 0.3 0.6 0.7
v 0.3 0.9 0.7
v -0.9 1.6 0.6
v -0.9 2 0.6
v -0.8 1.8 0.6
v -0.8 2 0.6
v -0.7 1.6 0.6
v -0.7 1.8 0.6
v -0.6 0.6 0.6
v -0.6 0.8 0.6
v -0.5 0.6 0.6
v -0.5 0.8 0.6
v -0.3 0.5 0.6
v -0.3 0.6 0.6
v -0.3 0.9 0.6
v -0.3 1 0.6
v -0.2 0.6 0.6
v -0.2 0.8 0.6
v -0.2 0.9 0.6
v -0.2 1 0.6
v -0.1 0.5 0.6
v -0.1 0.8 0.6
v 0.1 0.5 0.6
v 0.1 0.8 0.6
v 0.2 0.6 0.6
v 0.2 0.8 0.6
v 0.2 0.9 0.6
v 0.2 1 0.6
v 0.3 0.5 0.6
v 0.3 0.6 0.6
v 0.3 0.9 0.6
v 0.3 1 0.6
v 0.5 0.6 0.6
v 0.5 0.8 0.6
v 0.6 0.6 0.6
v 0.6 0.8 0.6
v 0.7 1.6 0.6
v 0.7 1.8 0.6
v 0.8 1.8 0.6
v 0.8 2 0.6
v 0.9 1.6 0.6
v 0.9 2 0.6
v -0.9 2 0.5
v -0.9 2.2 0.5
v -0.8 1.8 0.5
v -0.8 2 0.5
v -0.8 2.2 0.5
v -0.7 1.6 0.5
v -0.7 1.8 0.5
v -0.7 2 0.5
v -0.6 0.5 0.5
v -0.6 0.6 0.5
v -0.6 0.8 0.5
v -0.6 0.9 0.5
v -0.6 1.6 0.5
v -0.6 1.8 0.5
v -0.5 0.5 0.5
v -0.5 0.6 0.5
v -0.5 0.8 0.5
v -0.4 0.1 0.5
v -0.4 0.6 0.5
v -0.4 0.9 0.5
v -0.4 1.2 0.5
v -0.4 1.3 0.5
v -0.4 1.4 0.5
v -0.4 1.5 0.5
v -0.4 1.6 0.5
v -0.4 1.8 0.5
v -0.3 0.5 0.5
v -0.3 0.6 0.5
v -0.3 0.9 0.5
v -0.3 1 0.5
v -0.3 1.3 0.5
v -0.3 1.4 0.5
v -0.3 1.6 0.5
v -0.3 1.7 0.5
v -0.2 0.8 0.5
v -0.2 0.9 0.5
v -0.2 1 0.5
v -0.2 1.3 0.5
v -0.2 1.4 0.5
v -0.2 1.5 0.5
v -0.2 1.6 0.5
v -0.2 1.7 0.5
v -0.2 1.8 0.5
v -0.1 0 0.5
v -0.1 0.1 0.5
v -0.1 0.5 0.5
v -0.1 0.8 0.5
v -0.1 1.2 0.5
v -0.1 1.3 0.5
v -0.1 1.6 0.5
v -0.1 1.8 0.5
v 0.1 0 0.5
v 0.1 0.1 0.5
v 0.1 0.5 0.5
v 0.1 0.8 0.5
v 0.1 1.2 0.5
v 0.1 1.3 0.5
v 0.1 1.6 0.5
v 0.1 1.8 0.5
v 0.2 0.8 0.5
v 0.2 0.9 0.5
v 0.2 1 0.5
v 0.2 1.3 0.5
v 0.2 1.4 0.5
v 0.2 1.5 0.5
v 0.2 1.6 0.5
v 0.2 1.7 0.5
v 0.2 1.8 0.5
v 0.3 0.5 0.5
v 0.3 0.6 0.5
v 0.3 0.9 0.5
v 0.3 1 0.5
v 0.3 1.3 0.5
v 0.3 1.4 0.5
v 0.3 1.6 0.5
v 0.3 1.7 0.5
v 0.4 0.1 0.5
v 0.4 0.6 0.5
v 0.4 0.9 0.5
v 0.4 1.2 0.5
v 0.4 1.3 0.5
v 0.4 1.4 0.5
v 0.4 1.5 0.5
v 0.4 1.6 0.5
v 0.4 1.8 0.5
v 0.5 0.5 0.5
v 0.5 0.6 0.5
v 0.5 0.8 0.5
v 0.6 0.5 0.5
v 0.6 0.6 0.5
v 0.6 0.8 0.5
v 0.6 0.9 0.5
v 0.6 1.6 0.5
v 0.6 1.8 0.5
v 0.7 1.6 0.5
v 0.7 1.8 0.5
v 0.7 2 0.5
v 0.8 1.8 0.5
v 0.8 2 0.5
v 0.8 2.2 0.5
v 0.9 2 0.5
v 0.9 2.2 0.5
v -0.7 0.2 0.4
v -0.7 0.8 0.4
v -0.7 1 0.4
v -0.7 1.1 0.4
v -0.7 1.6 0.4
v -0.6 0.5 0.4
v -0.6 0.8 0.4
v -0.6 0.9 0.4
v -0.6 1 0.4
v -0.6 1.1 0.4
v -0.6 1.2 0.4
v -0.6 1.3 0.4
v -0.6 1.6 0.4
v -0.6 1.8 0.4
v -0.5 0.5 0.4
v -0.5 0.6 0.4
v -0.5 1.3 0.4
v -0.5 1.4 0.4
v -0.5 1.5 0.4
v -0.5 1.6 0.4
v -0.4 0.2 0.4
v -0.4 0.6 0.4
v -0.4 0.9 0.4
v -0.4 1.2 0.4
v -0.4 1.3 0.4
v -0.4 1.4 0.4
v -0.4 1.5 0.4
v -0.4 1.6 0.4
v -0.4 1.8 0.4
v 0.4 0.2 0.4
v 0.4 0.6 0.4
v 0.4 0.9 0.4
v 0.4 1.2 0.4
v 0.4 1.3 0.4
v 0.4 1.4 0.4
v 0.4 1.5 0.4
v 0.4 1.6 0.4
v 0.4 1.8 0.4
v 0.5 0.5 0.4
v 0.5 0.6 0.4
v 0.5 1.3 0.4
v 0.5 1.4 0.4
v 0.5 1.5 0.4
v 0.5 1.6 0.4
v 0.6 0.5 0.4
v 0.6 0.8 0.4
v 0.6 0.9 0.4
v 0.6 1 0.4
v 0.6 1.1 0.4
v 0.6 1.2 0.4
v 0.6 1.3 0.4
v 0.6 1.6 0.4
v 0.6 1.8 0.4
v 0.7 0.2 0.4
v 0.7 0.8 0.4
v 0.7 1 0.4
v 0.7 1.1 0.4
v 0.7 1.6 0.4
v -0.9 0.3 0.3
v -0.9 1.6 0.3
v -0.8 0.9 0.3
v -0.8 1.1 0.3
v -0.7 0.3 0.3
v -0.7 0.8 0.3
v -0.7 0.9 0.3
v -0.7 1 0.3
v -0.7 1.1 0.3
v -0.7 1.6 0.3
v 0.7 0.3 0.3
v 0.7 0.8 0.3
v 0.7 0.9 0.3
v 0.7 1 0.3
v 0.7 1.1 0.3
v 0.7 1.6 0.3
v 0.8 0.9 0.3
v 0.8 1.1 0.3
v 0.9 0.3 0.3
v 0.9 1.6 0.3
v -0.9 1.8 0.4
v -0.9 2.2 0.4
v -0.8 2 0.4
v -0.8 2.2 0.4
v -0.7 1.8 0.4
v -0.7 2 0.4
v 0.7 1.8 0.4
v 0.7 2 0.4
v 0.8 2 0.4
v 0.8 2.2 0.4
v 0.9 1.8 0.4
v 0.9 2.2 0.4
v -0.4 0.1 0.3
v -0.4 0.2 0.3
v -0.4 1.8 0.3
v -0.1 0 0.3
v -0.1 0.1 0.3
v 0.1 0 0.3
v 0.1 0.1 0.3
v 0.4 0.1 0.3
v 0.4 0.2 0.3
v 0.4 1.8 0.3
v -0.7 0.2 0.2
v -0.7 0.3 0.2
v -0.7 1.8 0.2
v -0.4 0.2 0.2
v -0.4 1.8 0.2
v 0.4 0.2 0.2
v 0.4 1.8 0.2
v 0.7 0.2 0.2
v 0.7 0.3 0.2
v 0.7 1.8 0.2
v -0.9 0.3 0.1
v -0.9 1.8 0.1
v -0.7 0.3 0.1
v -0.7 1.8 0.1
v 0.7 0.3 0.1
v 0.7 1.8 0.1
v 0.9 0.3 0.1
v 0.9 1.8 0.1
v -0.1 0 0.5
v 0.1 0 0.5
v -0.1 0 0.4
v 0.1 0 0.4
v -0.1 0 0.3
v 0.1 0 0.3
v -0.4 0.1 0.5
v -0.1 0.1 0.5
v 0.1 0.1 0.5
v 0.4 0.1 0.5
v -0.4 0.1 0.4
v -0.1 0.1 0.4
v 0.1 0.1 0.4
v 0.4 0.1 0.4
v -0.4 0.1 0.3
v -0.1 0.1 0.3
v 0.1 0.1 0.3
v 0.4 0.1 0.3
v -0.7 0.2 0.4
v -0.4 0.2 0.4
v 0.4 0.2 0.4
v 0.7 0.2 0.4
v -0.7 0.2 0.3
v -0.4 0.2 0.3
v 0.4 0.2 0.3
v 0.7 0.2 0.3
v -0.7 0.2 0.2
v -0.4 0.2 0.2
v 0.4 0.2 0.2
v 0.7 0.2 0.2
v -0.9 0.3 0.3
v -0.7 0.3 0.3
v 0.7 0.3 0.3
v 0.9 0.3 0.3
v -0.9 0.3 0.2
v -0.7 0.3 0.2
v 0.7 0.3 0.2
v 0.9 0.3 0.2
v -0.9 0.3 0.1
v -0.7 0.3 0.1
v 0.7 0.3 0.1
v 0.9 0.3 0.1
v -0.3 0.5 0.6
v -0.1 0.5 0.6
v 0.1 0.5 0.6
v 0.3 0.5 0.6
v -0.6 0.5 0.5
v -0.5 0.5 0.5
v -0.3 0.5 0.5
v -0.1 0.5 0.5
v 0.1 0.5 0.5
v 0.3 0.5 0.5
v 0.5 0.5 0.5
v 0.6 0.5 0.5
v -0.6 0.5 0.4
v -0.5 0.5 0.4
v 0.5 0.5 0.4
v 0.6 0.5 0.4
v -0.3 0.6 0.7
v -0.2 0.6 0.7
v 0.2 0.6 0.7
v 0.3 0.6 0.7
v -0.6 0.6 0.6
v -0.5 0.6 0.6
v -0.3 0.6 0.6
v -0.2 0.6 0.6
v 0.2 0.6 0.6
v 0.3 0.6 0.6
v 0.5 0.6 0.6
v 0.6 0.6 0.6
v -0.6 0.6 0.5
v -0.5 0.6 0.5
v -0.4 0.6 0.5
v 0.4 0.6 0.5
v 0.5 0.6 0.5
v 0.6 0.6 0.5
v -0.5 0.6 0.4
v -0.4 0.6 0.4
v 0.4 0.6 0.4
v 0.5 0.6 0.4
v -0.9 1.6 0.6
v -0.7 1.6 0.6
v 0.7 1.6 0.6
v 0.9 1.6 0.6
v -0.7 1.6 0.5
v -0.6 1.6 0.5
v 0.6 1.6 0.5
v 0.7 1.6 0.5
v -0.7 1.6 0.4
v -0.6 1.6 0.4
v 0.6 1.6 0.4
v 0.7 1.6 0.4
v -0.9 1.6 0.3
v -0.7 1.6 0.3
v 0.7 1.6 0.3
v 0.9 1.6 0.3
v -0.6 0.8 0.6
v -0.5 0.8 0.6
v -0.2 0.8 0.6
v -0.1 0.8 0.6
v 0.1 0.8 0.6
v 0.2 0.8 0.6
v 0.5 0.8 0.6
v 0.6 0.8 0.6
v -0.6 0.8 0.5
v -0.5 0.8 0.5
v -0.2 0.8 0.5
v -0.1 0.8 0.5
v 0.1 0.8 0.5
v 0.2 0.8 0.5
v 0.5 0.8 0.5
v 0.6 0.8 0.5
v -0.3 0.9 0.7
v -0.2 0.9 0.7
v 0.2 0.9 0.7
v 0.3 0.9 0.7
v -0.3 0.9 0.6
v -0.2 0.9 0.6
v 0.2 0.9 0.6
v 0.3 0.9 0.6
v -0.6 0.9 0.5
v -0.4 0.9 0.5
v 0.4 0.9 0.5
v 0.6 0.9 0.5
v -0.6 0.9 0.4
v -0.4 0.9 0.4
v 0.4 0.9 0.4
v 0.6 0.9 0.4
v -0.3 1 0.6
v -0.2 1 0.6
v 0.2 1 0.6
v 0.3 1 0.6
v -0.3 1 0.5
v -0.2 1 0.5
v 0.2 1 0.5
v 0.3 1 0.5
v -0.8 1.8 0.6
v -0.7 1.8 0.6
v 0.7 1.8 0.6
v 0.8 1.8 0.6
v -0.8 1.8 0.5
v -0.7 1.8 0.5
v -0.6 1.8 0.5
v -0.4 1.8 0.5
v -0.2 1.8 0.5
v -0.1 1.8 0.5
v 0.1 1.8 0.5
v 0.2 1.8 0.5
v 0.4 1.8 0.5
v 0.6 1.8 0.5
v 0.7 1.8 0.5
v 0.8 1.8 0.5
v -0.9 1.8 0.4
v -0.7 1.8 0.4
v -0.6 1.8 0.4
v -0.4 1.8 0.4
v -0.2 1.8 0.4
v -0.1 1.8 0.4
v 0.1 1.8 0.4
v 0.2 1.8 0.4
v 0.4 1.8 0.4
v 0.6 1.8 0.4
v 0.7 1.8 0.4
v 0.9 1.8 0.4
v -0.9 1.8 0.3
v -0.7 1.8 0.3
v -0.4 1.8 0.3
v 0.4 1.8 0.3
v 0.7 1.8 0.3
v 0.9 1.8 0.3
v -0.9 1.8 0.2
v -0.7 1.8 0.2
v -0.4 1.8 0.2
v 0.4 1.8 0.2
v 0.7 1.8 0.2
v 0.9 1.8 0.2
v -0.9 1.8 0.1
v -0.7 1.8 0.1
v 0.7 1.8 0.1
v 0.9 1.8 0.1
v -0.9 2 0.6
v -0.8 2 0.6
v 0.8 2 0.6
v 0.9 2 0.6
v -0.9 2 0.5
v -0.8 2 0.5
v -0.7 2 0.5
v 0.7 2 0.5
v 0.8 2 0.5
v 0.9 2 0.5
v -0.8 2 0.4
v -0.7 2 0.4
v 0.7 2 0.4
v 0.8 2 0.4
v -0.9 2.2 0.5
v -0.8 2.2 0.5
v 0.8 2.2 0.5
v 0.9 2.2 0.5
v -0.9 2.2 0.4
v -0.8 2.2 0.4
v 0.8 2.2 0.4
v 0.9 2.2 0.4

# faces
f 5/6/1 2/6/1 1/6/1
f 6/1/1 5/1/1 4/1/1
f 7/6/1 2/6/1 5/6/1
f 7/1/1 5/1/1 6/1/1
f 8/3/1 3/3/1 2/3/1
f 8/6/1 2/6/1 7/6/1
f 9/3/1 3/3/1 8/3/1
f 10/1/1 6/1/1 4/1/1
f 11/1/1 6/1/1 10/1/1
f 12/1/1 6/1/1 11/1/1
f 13/1/1 6/1/1 12/1/1
f 17/6/1 15/6/1 14/6/1
f 17/3/1 16/3/1 15/3/1
f 18/3/1 16/3/1 17/3/1
f 19/6/1 17/6/1 14/6/1
f 20/6/1 17/6/1 19/6/1
f 21/7/1 20/7/1 19/7/1
f 22/7/1 21/7/1 19/7/1
f 23/7/1 21/7/1 22/7/1
f 24/2/1 23/2/1 22/2/1
f 25/2/1 23/2/1 24/2/1
f 26/6/1 25/6/1 24/6/1
f 27/6/1 25/6/1 26/6/1
f 31/1/1 29/1/1 28/1/1
f 32/1/1 31/1/1 30/1/1
f 33/1/1 29/1/1 31/1/1
f 33/1/1 31/1/1 32/1/1
f 34/1/1 29/1/1 33/1/1
f 35/1/1 34/1/1 33/1/1
f 36/1/1 34/1/1 35/1/1
f 40/6/1 38/6/1 37/6/1
f 40/3/1 39/3/1 38/3/1
f 41/3/1 39/3/1 40/3/1
f 42/6/1 40/6/1 37/6/1
f 43/6/1 40/6/1 42/6/1
f 46/6/1 45/6/1 44/6/1
f 47/6/1 45/6/1 46/6/1
f 48/7/1 47/7/1 46/7/1
f 49/7/1 47/7/1 48/7/1
f 50/5/1 49/5/1 48/5/1
f 51/5/1 49/5/1 50/5/1
f 52/6/1 51/6/1 50/6/1
f 53/6/1 51/6/1 52/6/1
f 54/7/1 53/7/1 52/7/1
f 55/7/1 53/7/1 54/7/1
f 56/6/1 55/6/1 54/6/1
f 57/6/1 55/6/1 56/6/1
f 61/1/1 59/1/1 58/1/1
f 62/1/1 59/1/1 61/1/1
f 63/1/1 61/1/1 60/1/1
f 63/1/1 62/1/1 61/1/1
f 64/1/1 62/1/1 63/1/1
f 65/1/1 62/1/1 64/1/1
f 66/1/1 65/1/1 64/1/1
f 67/1/1 65/1/1 66/1/1
f 71/6/1 69/6/1 68/6/1
f 72/3/1 70/3/1 69/3/1
f 72/6/1 69/6/1 71/6/1
f 73/3/1 70/3/1 72/3/1
f 76/1/1 75/1/1 74/1/1
f 77/1/1 75/1/1 76/1/1
f 80/1/1 79/1/1 78/1/1
f 82/1/1 80/1/1 78/1/1
f 82/1/1 81/1/1 80/1/1
f 83/1/1 81/1/1 82/1/1
f 84/1/1 81/1/1 83/1/1
f 85/1/1 84/1/1 83/1/1
f 86/1/1 84/1/1 85/1/1
f 89/3/1 88/3/1 87/3/1
f 90/3/1 88/3/1 89/3/1
f 94/1/1 92/1/1 91/1/1
f 95/1/1 92/1/1 94/1/1
f 96/1/1 94/1/1 93/1/1
f 97/1/1 94/1/1 96/1/1
f 100/1/1 99/1/1 98/1/1
f 101/1/1 99/1/1 100/1/1
f 106/1/1 105/1/1 104/1/1
f 107/1/1 105/1/1 106/1/1
f 109/3/1 103/3/1 102/3/1
f 110/3/1 103/3/1 109/3/1
f 111/1/1 108/1/1 107/1/1
f 112/1/1 108/1/1 111/1/1
f 115/1/1 114/1/1 113/1/1
f 116/1/1 114/1/1 115/1/1
f 118/1/1 117/1/1 116/1/1
f 119/1/1 117/1/1 118/1/1
f 120/1/2 121/1/2 122/1/2
f 122/1/2 121/1/2 123/1/2
f 123/1/2 124/1/2 125/1/2
f 125/1/2 124/1/2 126/1/2
f 129/1/2 130/1/2 131/1/2
f 131/1/2 130/1/2 132/1/2
f 127/3/2 128/3/2 134/3/2
f 134/3/2 128/3/2 135/3/2
f 132/1/2 133/1/2 136/1/2
f 136/1/2 133/1/2 137/1/2
f 138/1/2 139/1/2 140/1/2
f 140/1/2 139/1/2 141/1/2
f 142/1/2 143/1/2 145/1/2
f 145/1/2 143/1/2 146/1/2
f 144/1/2 145/1/2 147/1/2
f 147/1/2 145/1/2 148/1/2
f 149/3/2 150/3/2 151/3/2
f 151/3/2 150/3/2 152/3/2
f 153/1/2 154/1/2 155/1/2
f 153/1/2 155/1/2 157/1/2
f 155/1/2 156/1/2 157/1/2
f 157/1/2 156/1/2 158/1/2
f 158/1/2 156/1/2 159/1/2
f 158/1/2 159/1/2 160/1/2
f 160/1/2 159/1/2 161/1/2
f 162/1/2 163/1/2 164/1/2
f 164/1/2 163/1/2 165/1/2
f 166/6/2 167/6/2 169/6/2
f 167/3/2 168/3/2 170/3/2
f 169/6/2 167/6/2 170/6/2
f 170/3/2 168/3/2 171/3/2
f 172/1/2 173/1/2 175/1/2
f 175/1/2 173/1/2 176/1/2
f 174/1/2 175/1/2 177/1/2
f 175/1/2 176/1/2 177/1/2
f 177/1/2 176/1/2 178/1/2
f 178/1/2 176/1/2 179/1/2
f 178/1/2 179/1/2 180/1/2
f 180/1/2 179/1/2 181/1/2
f 182/6/2 183/6/2 185/6/2
f 183/3/2 184/3/2 185/3/2
f 185/3/2 184/3/2 186/3/2
f 182/6/2 185/6/2 187/6/2
f 187/6/2 185/6/2 188/6/2
f 189/6/2 190/6/2 191/6/2
f 191/6/2 190/6/2 192/6/2
f 191/7/2 192/7/2 193/7/2
f 193/7/2 192/7/2 194/7/2
f 193/5/2 194/5/2 195/5/2
f 195/5/2 194/5/2 196/5/2
f 195/6/2 196/6/2 197/6/2
f 197/6/2 196/6/2 198/6/2
f 197/7/2 198/7/2 199/7/2
f 199/7/2 198/7/2 200/7/2
f 199/6/2 200/6/2 201/6/2
f 201/6/2 200/6/2 202/6/2
f 203/1/2 204/1/2 206/1/2
f 205/1/2 206/1/2 207/1/2
f 206/1/2 204/1/2 208/1/2
f 207/1/2 206/1/2 208/1/2
f 208/1/2 204/1/2 209/1/2
f 208/1/2 209/1/2 210/1/2
f 210/1/2 209/1/2 211/1/2
f 212/6/2 213/6/2 215/6/2
f 213/3/2 214/3/2 215/3/2
f 215/3/2 214/3/2 216/3/2
f 212/6/2 215/6/2 217/6/2
f 217/6/2 215/6/2 218/6/2
f 217/7/2 218/7/2 219/7/2
f 217/7/2 219/7/2 220/7/2
f 220/7/2 219/7/2 221/7/2
f 220/2/2 221/2/2 222/2/2
f 222/2/2 221/2/2 223/2/2
f 222/6/2 223/6/2 224/6/2
f 224/6/2 223/6/2 225/6/2
f 226/6/2 227/6/2 230/6/2
f 229/1/2 230/1/2 231/1/2
f 230/6/2 227/6/2 232/6/2
f 231/1/2 230/1/2 232/1/2
f 227/3/2 228/3/2 233/3/2
f 232/6/2 227/6/2 233/6/2
f 233/3/2 228/3/2 234/3/2
f 229/1/2 231/1/2 235/1/2
f 235/1/2 231/1/2 236/1/2
f 236/1/2 231/1/2 237/1/2
f 237/1/2 231/1/2 238/1/2
f 241/1/3 240/1/3 239/1/3
f 242/1/3 240/1/3 241/1/3
f 245/1/3 244/1/3 243/1/3
f 246/1/3 244/1/3 245/1/3
f 249/1/3 248/1/3 247/1/3
f 250/1/3 248/1/3 249/1/3
f 251/1/3 249/1/3 247/1/3
f 252/1/3 249/1/3 251/1/3
f 255/1/3 254/1/3 253/1/3
f 256/1/3 254/1/3 255/1/3
f 261/1/3 258/1/3 257/1/3
f 263/1/3 260/1/3 259/1/3
f 264/1/3 260/1/3 263/1/3
f 265/1/3 262/1/3 261/1/3
f 265/1/3 261/1/3 257/1/3
f 266/1/3 262/1/3 265/1/3
f 269/1/3 268/1/3 267/1/3
f 270/1/3 268/1/3 269/1/3
f 273/1/3 269/1/3 267/1/3
f 274/1/3 269/1/3 273/1/3
f 275/1/3 272/1/3 271/1/3
f 276/1/3 272/1/3 275/1/3
f 279/1/3 278/1/3 277/1/3
f 280/1/3 278/1/3 279/1/3
f 283/1/3 282/1/3 281/1/3
f 285/1/3 283/1/3 281/1/3
f 285/1/3 284/1/3 283/1/3
f 286/1/3 284/1/3 285/1/3
f 290/1/3 288/1/3 287/1/3
f 291/1/3 288/1/3 290/1/3
f 293/1/3 290/1/3 289/1/3
f 294/1/3 290/1/3 293/1/3
f 299/1/3 293/1/3 292/1/3
f 300/1/3 293/1/3 299/1/3
f 301/1/3 296/1/3 295/1/3
f 302/1/3 296/1/3 301/1/3
f 303/1/3 298/1/3 297/1/3
f 305/1/3 303/1/3 302/1/3
f 306/1/3 298/1/3 303/1/3
f 306/1/3 303/1/3 305/1/3
f 313/6/3 305/6/3 304/6/3
f 314/7/3 306/7/3 305/7/3
f 314/6/3 305/6/3 313/6/3
f 315/6/3 307/6/3 306/6/3
f 315/7/3 306/7/3 314/7/3
f 316/6/3 307/6/3 315/6/3
f 317/7/3 308/7/3 307/7/3
f 317/5/3 309/5/3 308/5/3
f 318/6/3 310/6/3 309/6/3
f 318/5/3 309/5/3 317/5/3
f 319/6/3 312/6/3 311/6/3
f 319/7/3 311/7/3 310/7/3
f 320/6/3 312/6/3 319/6/3
f 323/6/3 307/6/3 316/6/3
f 324/7/3 317/7/3 307/7/3
f 324/7/3 318/7/3 317/7/3
f 325/6/3 310/6/3 318/6/3
f 325/7/3 318/7/3 324/7/3
f 326/7/3 320/7/3 319/7/3
f 326/6/3 310/6/3 325/6/3
f 326/7/3 319/7/3 310/7/3
f 327/7/3 320/7/3 326/7/3
f 328/6/3 312/6/3 320/6/3
f 328/7/3 320/7/3 327/7/3
f 329/6/3 312/6/3 328/6/3
f 331/6/3 313/6/3 304/6/3
f 332/6/3 313/6/3 331/6/3
f 333/7/3 322/7/3 321/7/3
f 334/7/3 324/7/3 307/7/3
f 334/6/3 323/6/3 322/6/3
f 334/6/3 307/6/3 323/6/3
f 335/6/3 327/6/3 326/6/3
f 335/7/3 324/7/3 334/7/3
f 335/6/3 325/6/3 324/6/3
f 335/6/3 326/6/3 325/6/3
f 336/7/3 328/7/3 327/7/3
f 336/6/3 327/6/3 335/6/3
f 336/7/3 329/7/3 328/7/3
f 337/7/3 329/7/3 336/7/3
f 338/6/3 332/6/3 331/6/3
f 338/6/3 331/6/3 330/6/3
f 339/6/3 332/6/3 338/6/3
f 340/7/3 333/7/3 332/7/3
f 340/6/3 332/6/3 339/6/3
f 341/7/3 322/7/3 333/7/3
f 341/7/3 333/7/3 340/7/3
f 342/6/3 334/6/3 322/6/3
f 342/6/3 337/6/3 336/6/3
f 342/6/3 335/6/3 334/6/3
f 342/6/3 336/6/3 335/6/3
f 343/6/3 337/6/3 342/6/3
f 344/6/3 337/6/3 343/6/3
f 345/6/3 337/6/3 344/6/3
f 346/7/3 322/7/3 341/7/3
f 347/6/3 342/6/3 322/6/3
f 347/7/3 322/7/3 346/7/3
f 348/6/3 342/6/3 347/6/3
f 349/6/3 344/6/3 343/6/3
f 349/7/3 343/7/3 342/7/3
f 350/6/3 344/6/3 349/6/3
f 351/6/3 344/6/3 350/6/3
f 352/7/3 345/7/3 344/7/3
f 352/6/3 344/6/3 351/6/3
f 353/7/3 345/7/3 352/7/3
f 354/7/3 345/7/3 353/7/3
f 355/6/3 340/6/3 339/6/3
f 358/6/3 342/6/3 348/6/3
f 359/7/3 349/7/3 342/7/3
f 359/7/3 350/7/3 349/7/3
f 360/6/3 351/6/3 350/6/3
f 360/7/3 350/7/3 359/7/3
f 361/7/3 353/7/3 352/7/3
f 361/7/3 352/7/3 351/7/3
f 362/6/3 354/6/3 353/6/3
f 362/7/3 353/7/3 361/7/3
f 363/6/3 355/6/3 339/6/3
f 363/6/3 356/6/3 355/6/3
f 364/7/3 357/7/3 356/7/3
f 364/6/3 356/6/3 363/6/3
f 365/6/3 358/6/3 357/6/3
f 365/7/3 357/7/3 364/7/3
f 366/7/3 359/7/3 342/7/3
f 366/6/3 358/6/3 365/6/3
f 366/6/3 342/6/3 358/6/3
f 367/5/3 360/5/3 359/5/3
f 367/7/3 359/7/3 366/7/3
f 368/6/3 351/6/3 360/6/3
f 368/5/3 360/5/3 367/5/3
f 369/7/3 361/7/3 351/7/3
f 369/6/3 351/6/3 368/6/3
f 370/6/3 362/6/3 361/6/3
f 370/7/3 361/7/3 369/7/3
f 371/6/3 354/6/3 362/6/3
f 371/6/3 362/6/3 370/6/3
f 373/1/3 365/1/3 364/1/3
f 374/1/3 365/1/3 373/1/3
f 375/1/3 373/1/3 372/1/3
f 376/1/3 373/1/3 375/1/3
f 377/1/3 365/1/3 374/1/3
f 378/1/3 365/1/3 377/1/3
f 381/1/3 380/1/3 379/1/3
f 382/1/3 380/1/3 381/1/3
f 384/1/3 383/1/3 382/1/3
f 385/1/3 383/1/3 384/1/3
f 387/1/3 386/1/3 385/1/3
f 388/1/3 386/1/3 387/1/3
f 394/6/3 390/6/3 389/6/3
f 395/7/3 391/7/3 390/7/3
f 395/6/3 390/6/3 394/6/3
f 396/7/3 391/7/3 395/7/3
f 397/2/3 392/2/3 391/2/3
f 397/7/3 391/7/3 396/7/3
f 398/6/3 393/6/3 392/6/3
f 398/2/3 392/2/3 397/2/3
f 399/6/3 393/6/3 398/6/3
f 400/6/3 393/6/3 399/6/3
f 401/6/3 393/6/3 400/6/3
f 403/6/3 394/6/3 389/6/3
f 405/6/3 402/6/3 401/6/3
f 405/6/3 401/6/3 400/6/3
f 405/7/3 400/7/3 399/7/3
f 406/6/3 402/6/3 405/6/3
f 407/6/3 402/6/3 406/6/3
f 408/6/3 402/6/3 407/6/3
f 409/6/3 404/6/3 403/6/3
f 409/6/3 403/6/3 389/6/3
f 410/6/3 404/6/3 409/6/3
f 411/6/3 397/6/3 396/6/3
f 411/6/3 399/6/3 398/6/3
f 411/6/3 398/6/3 397/6/3
f 412/7/3 405/7/3 399/7/3
f 412/6/3 399/6/3 411/6/3
f 412/7/3 406/7/3 405/7/3
f 413/7/3 406/7/3 412/7/3
f 414/6/3 407/6/3 406/6/3
f 414/7/3 406/7/3 413/7/3
f 415/7/3 408/7/3 407/7/3
f 415/6/3 407/6/3 414/6/3
f 416/6/3 402/6/3 408/6/3
f 416/7/3 408/7/3 415/7/3
f 417/6/3 402/6/3 416/6/3
f 427/6/3 419/6/3 418/6/3
f 428/6/3 419/6/3 427/6/3
f 429/7/3 422/7/3 421/7/3
f 429/7/3 423/7/3 422/7/3
f 430/6/3 424/6/3 423/6/3
f 430/7/3 423/7/3 429/7/3
f 431/7/3 425/7/3 424/7/3
f 431/6/3 424/6/3 430/6/3
f 432/6/3 426/6/3 425/6/3
f 432/7/3 425/7/3 431/7/3
f 433/6/3 427/6/3 418/6/3
f 435/6/3 421/6/3 420/6/3
f 436/6/3 421/6/3 435/6/3
f 437/6/3 421/6/3 436/6/3
f 438/7/3 429/7/3 421/7/3
f 438/6/3 421/6/3 437/6/3
f 439/6/3 431/6/3 430/6/3
f 439/7/3 429/7/3 438/7/3
f 439/6/3 432/6/3 431/6/3
f 439/6/3 430/6/3 429/6/3
f 440/6/3 426/6/3 432/6/3
f 440/6/3 432/6/3 439/6/3
f 441/6/3 426/6/3 440/6/3
f 442/6/3 434/6/3 433/6/3
f 442/6/3 433/6/3 418/6/3
f 443/7/3 436/7/3 435/7/3
f 443/6/3 434/6/3 442/6/3
f 443/7/3 435/7/3 434/7/3
f 444/2/3 437/2/3 436/2/3
f 444/7/3 436/7/3 443/7/3
f 445/6/3 438/6/3 437/6/3
f 445/2/3 437/2/3 444/2/3
f 445/6/3 439/6/3 438/6/3
f 445/6/3 440/6/3 439/6/3
f 446/6/3 440/6/3 445/6/3
f 449/6/3 448/6/3 447/6/3
f 450/6/3 448/6/3 449/6/3
f 451/6/3 449/6/3 447/6/3
f 452/6/3 449/6/3 451/6/3
f 453/2/3 450/2/3 449/2/3
f 453/6/3 449/6/3 452/6/3
f 454/2/3 450/2/3 453/2/3
f 455/6/3 448/6/3 450/6/3
f 455/2/3 450/2/3 454/2/3
f 456/6/3 448/6/3 455/6/3
f 463/6/3 458/6/3 457/6/3
f 463/6/3 459/6/3 458/6/3
f 463/2/3 461/2/3 460/2/3
f 463/2/3 460/2/3 459/2/3
f 464/6/3 462/6/3 461/6/3
f 464/2/3 461/2/3 463/2/3
f 465/6/3 463/6/3 457/6/3
f 465/6/3 464/6/3 463/6/3
f 466/6/3 462/6/3 464/6/3
f 466/6/3 464/6/3 465/6/3
f 467/1/4 468/1/4 469/1/4
f 469/1/4 468/1/4 470/1/4
f 467/1/4 469/1/4 471/1/4
f 471/1/4 469/1/4 472/1/4
f 473/1/4 474/1/4 475/1/4
f 473/1/4 475/1/4 477/1/4
f 475/1/4 476/1/4 477/1/4
f 477/1/4 476/1/4 478/1/4
f 479/3/4 480/3/4 483/3/4
f 480/3/4 481/3/4 483/3/4
f 482/3/4 483/3/4 484/3/4
f 483/3/4 481/3/4 485/3/4
f 484/3/4 483/3/4 485/3/4
f 485/3/4 481/3/4 486/3/4
f 486/3/4 481/3/4 487/3/4
f 487/3/4 481/3/4 488/3/4
f 489/3/4 490/3/4 492/3/4
f 490/3/4 491/3/4 492/3/4
f 492/3/4 491/3/4 493/3/4
f 494/3/4 495/3/4 496/3/4
f 496/3/4 495/3/4 497/3/4
f 497/3/4 495/3/4 498/3/4
f 499/3/4 500/3/4 501/3/4
f 501/3/4 500/3/4 502/3/4
f 503/3/4 504/3/4 505/3/4
f 505/3/4 504/3/4 506/3/4
f 509/6/5 508/6/5 507/6/5
f 510/6/5 508/6/5 509/6/5
f 511/3/5 510/3/5 509/3/5
f 512/3/5 510/3/5 511/3/5
f 517/6/5 514/6/5 513/6/5
f 518/6/5 514/6/5 517/6/5
f 519/6/5 516/6/5 515/6/5
f 520/6/5 516/6/5 519/6/5
f 521/3/5 518/3/5 517/3/5
f 522/3/5 518/3/5 521/3/5
f 523/3/5 520/3/5 519/3/5
f 524/3/5 520/3/5 523/3/5
f 529/6/5 526/6/5 525/6/5
f 530/6/5 526/6/5 529/6/5
f 531/6/5 528/6/5 527/6/5
f 532/6/5 528/6/5 531/6/5
f 533/3/5 530/3/5 529/3/5
f 534/3/5 530/3/5 533/3/5
f 535/3/5 532/3/5 531/3/5
f 536/3/5 532/3/5 535/3/5
f 541/6/5 538/6/5 537/6/5
f 542/6/5 538/6/5 541/6/5
f 543/6/5 540/6/5 539/6/5
f 544/6/5 540/6/5 543/6/5
f 545/3/5 542/3/5 541/3/5
f 546/3/5 542/3/5 545/3/5
f 547/3/5 544/3/5 543/3/5
f 548/3/5 544/3/5 547/3/5
f 555/1/5 550/1/5 549/1/5
f 556/1/5 550/1/5 555/1/5
f 557/1/5 552/1/5 551/1/5
f 558/1/5 552/1/5 557/1/5
f 561/1/5 554/1/5 553/1/5
f 562/1/5 554/1/5 561/1/5
f 563/1/5 560/1/5 559/1/5
f 564/1/5 560/1/5 563/1/5
f 571/1/5 566/1/5 565/1/5
f 572/1/5 566/1/5 571/1/5
f 573/1/5 568/1/5 567/1/5
f 574/1/5 568/1/5 573/1/5
f 577/1/5 570/1/5 569/1/5
f 578/1/5 570/1/5 577/1/5
f 581/1/5 576/1/5 575/1/5
f 582/1/5 576/1/5 581/1/5
f 583/1/5 579/1/5 578/1/5
f 584/1/5 579/1/5 583/1/5
f 585/1/5 581/1/5 580/1/5
f 586/1/5 581/1/5 585/1/5
f 591/1/5 588/1/5 587/1/5
f 594/1/5 590/1/5 589/1/5
f 595/1/5 592/1/5 591/1/5
f 595/1/5 591/1/5 587/1/5
f 596/1/5 592/1/5 595/1/5
f 597/1/5 594/1/5 593/1/5
f 598/1/5 590/1/5 594/1/5
f 598/1/5 594/1/5 597/1/5
f 599/1/5 595/1/5 587/1/5
f 600/1/5 595/1/5 599/1/5
f 601/1/5 590/1/5 598/1/5
f 602/1/5 590/1/5 601/1/5
f 603/1/6 604/1/6 611/1/6
f 611/1/6 604/1/6 612/1/6
f 605/1/6 606/1/6 613/1/6
f 613/1/6 606/1/6 614/1/6
f 607/1/6 608/1/6 615/1/6
f 615/1/6 608/1/6 616/1/6
f 609/1/6 610/1/6 617/1/6
f 617/1/6 610/1/6 618/1/6
f 619/1/6 620/1/6 623/1/6
f 623/1/6 620/1/6 624/1/6
f 621/1/6 622/1/6 625/1/6
f 625/1/6 622/1/6 626/1/6
f 627/1/6 628/1/6 631/1/6
f 631/1/6 628/1/6 632/1/6
f 629/1/6 630/1/6 633/1/6
f 633/1/6 630/1/6 634/1/6
f 635/1/6 636/1/6 639/1/6
f 639/1/6 636/1/6 640/1/6
f 637/1/6 638/1/6 641/1/6
f 641/1/6 638/1/6 642/1/6
f 643/1/6 644/1/6 647/1/6
f 647/1/6 644/1/6 648/1/6
f 645/1/6 646/1/6 657/1/6
f 657/1/6 646/1/6 658/1/6
f 648/1/6 649/1/6 660/1/6
f 660/1/6 649/1/6 661/1/6
f 650/6/6 651/6/6 662/6/6
f 651/7/6 652/7/6 663/7/6
f 662/6/6 651/6/6 663/6/6
f 652/6/6 653/6/6 664/6/6
f 663/7/6 652/7/6 664/7/6
f 653/7/6 654/7/6 665/7/6
f 664/6/6 653/6/6 665/6/6
f 654/6/6 655/6/6 666/6/6
f 665/7/6 654/7/6 666/7/6
f 666/6/6 655/6/6 667/6/6
f 656/1/6 657/1/6 668/1/6
f 668/1/6 657/1/6 669/1/6
f 659/1/6 660/1/6 671/1/6
f 660/6/6 661/6/6 672/6/6
f 671/1/6 660/1/6 672/1/6
f 661/6/6 662/6/6 672/6/6
f 664/3/6 665/3/6 673/3/6
f 672/6/6 662/6/6 673/6/6
f 666/3/6 667/3/6 673/3/6
f 662/3/6 663/3/6 673/3/6
f 665/3/6 666/3/6 673/3/6
f 663/3/6 664/3/6 673/3/6
f 668/6/6 669/6/6 674/6/6
f 673/3/6 667/3/6 674/3/6
f 667/6/6 668/6/6 674/6/6
f 669/1/6 670/1/6 675/1/6
f 674/6/6 669/6/6 675/6/6
f 675/1/6 670/1/6 676/1/6
f 671/6/6 672/6/6 677/6/6
f 672/3/6 673/3/6 678/3/6
f 677/6/6 672/6/6 678/6/6
f 678/3/6 673/3/6 679/3/6
f 674/3/6 675/3/6 680/3/6
f 675/6/6 676/6/6 681/6/6
f 680/3/6 675/3/6 681/3/6
f 681/6/6 676/6/6 682/6/6
f 677/3/6 678/3/6 683/3/6
f 683/3/6 678/3/6 684/3/6
f 681/3/6 682/3/6 685/3/6
f 685/3/6 682/3/6 686/3/6
f 687/1/6 688/1/6 691/1/6
f 691/1/6 688/1/6 692/1/6
f 689/1/6 690/1/6 695/1/6
f 695/1/6 690/1/6 696/1/6
f 692/1/6 693/1/6 697/1/6
f 697/1/6 693/1/6 698/1/6
f 694/1/6 695/1/6 699/1/6
f 699/1/6 695/1/6 700/1/6
f 701/1/6 702/1/6 705/1/6
f 705/1/6 702/1/6 706/1/6
f 703/1/6 704/1/6 707/1/6
f 707/1/6 704/1/6 708/1/6
